<?xml version="1.0" encoding="UTF-8"?><svg id="Layer_2" xmlns="http://www.w3.org/2000/svg" viewBox="0 0 73.4 73.5"><defs><style>.cls-1{fill:#5fc6eb;}.cls-2{fill:#0093e1;}</style></defs><g id="Layer_1-2"><rect class="cls-2" width="73.28" height="73.28"/><rect class="cls-2" x="4.9" y="5" width="1" height="1"/><rect class="cls-2" x="13.9" y="5" width="1" height="1"/><rect class="cls-2" x="22.9" y="5" width="1" height="1"/><rect class="cls-2" x="31.9" y="5" width="1" height="1"/><rect class="cls-2" x="40.9" y="5" width="1" height="1"/><rect class="cls-2" x="49.9" y="5" width="1" height="1"/><rect class="cls-2" x="58.9" y="5" width="1" height="1"/><rect class="cls-2" x="67.9" y="5" width="1" height="1"/><rect class="cls-2" x="4.9" y="14" width="1" height="1"/><rect class="cls-2" x="13.9" y="14" width="1" height="1"/><rect class="cls-2" x="22.9" y="14" width="1" height="1"/><rect class="cls-2" x="31.9" y="14" width="1" height="1"/><rect class="cls-2" x="40.9" y="14" width="1" height="1"/><rect class="cls-2" x="49.9" y="14" width="1" height="1"/><rect class="cls-2" x="58.9" y="14" width="1" height="1"/><rect class="cls-2" x="67.9" y="14" width="1" height="1"/><rect class="cls-2" x="4.9" y="23" width="1" height="1"/><rect class="cls-2" x="13.9" y="23" width="1" height="1"/><rect class="cls-2" x="22.9" y="23" width="1" height="1"/><rect class="cls-2" x="31.9" y="23" width="1" height="1"/><rect class="cls-2" x="40.9" y="23" width="1" height="1"/><rect class="cls-2" x="49.9" y="23" width="1" height="1"/><rect class="cls-2" x="58.9" y="23" width="1" height="1"/><rect class="cls-2" x="67.9" y="23" width="1" height="1"/><rect class="cls-2" x="4.9" y="32" width="1" height="1"/><rect class="cls-2" x="13.9" y="32" width="1" height="1"/><rect class="cls-2" x="22.9" y="32" width="1" height="1"/><rect class="cls-2" x="31.9" y="32" width="1" height="1"/><rect class="cls-2" x="40.9" y="32" width="1" height="1"/><rect class="cls-2" x="49.9" y="32" width="1" height="1"/><rect class="cls-2" x="58.9" y="32" width="1" height="1"/><rect class="cls-2" x="67.9" y="32" width="1" height="1"/><rect class="cls-2" x="4.9" y="41" width="1" height="1"/><rect class="cls-2" x="13.9" y="41" width="1" height="1"/><rect class="cls-2" x="22.9" y="41" width="1" height="1"/><rect class="cls-2" x="31.9" y="41" width="1" height="1"/><rect class="cls-2" x="40.9" y="41" width="1" height="1"/><rect class="cls-2" x="49.9" y="41" width="1" height="1"/><rect class="cls-2" x="58.9" y="41" width="1" height="1"/><rect class="cls-2" x="67.9" y="41" width="1" height="1"/><rect class="cls-2" x="4.9" y="50" width="1" height="1"/><rect class="cls-2" x="13.9" y="50" width="1" height="1"/><rect class="cls-2" x="22.9" y="50" width="1" height="1"/><rect class="cls-2" x="31.9" y="50" width="1" height="1"/><rect class="cls-2" x="40.9" y="50" width="1" height="1"/><rect class="cls-2" x="49.9" y="50" width="1" height="1"/><rect class="cls-2" x="58.9" y="50" width="1" height="1"/><rect class="cls-2" x="67.9" y="50" width="1" height="1"/><rect class="cls-2" x="4.9" y="59" width="1" height="1"/><rect class="cls-2" x="13.9" y="59" width="1" height="1"/><rect class="cls-2" x="22.9" y="59" width="1" height="1"/><rect class="cls-2" x="31.9" y="59" width="1" height="1"/><rect class="cls-2" x="40.9" y="59" width="1" height="1"/><rect class="cls-2" x="49.9" y="59" width="1" height="1"/><rect class="cls-2" x="58.9" y="59" width="1" height="1"/><rect class="cls-2" x="67.9" y="59" width="1" height="1"/><rect class="cls-2" x="4.9" y="68" width="1" height="1"/><rect class="cls-2" x="13.9" y="68" width="1" height="1"/><rect class="cls-2" x="22.9" y="68" width="1" height="1"/><rect class="cls-2" x="31.9" y="68" width="1" height="1"/><rect class="cls-2" x="40.9" y="68" width="1" height="1"/><rect class="cls-2" x="49.9" y="68" width="1" height="1"/><rect class="cls-2" x="58.9" y="68" width="1" height="1"/><rect class="cls-2" x="67.9" y="68" width="1" height="1"/><path class="cls-1" d="M10.37,14.77c.14,0,.27,0,.39-.02.05.82.38,1.57.89,2.16-.1.07-.19.16-.29.26-.38.38-.6.77-.49.87s.49-.12.87-.49c.1-.1.19-.2.26-.29.59.51,1.33.84,2.16.89-.01.12-.02.25-.02.39,0,.53.12.97.27.97s.27-.43.27-.97c0-.14,0-.27-.02-.39.82-.05,1.57-.38,2.16-.89.07.1.16.19.26.29.38.38.77.6.87.49.1-.1-.12-.49-.49-.87-.1-.1-.2-.19-.29-.26.51-.59.84-1.33.89-2.16.12.01.25.02.39.02.53,0,.97-.12.97-.27s-.43-.27-.97-.27c-.14,0-.27,0-.39.02-.05-.82-.38-1.57-.89-2.16.1-.07.19-.16.29-.26.38-.38.6-.77.49-.87-.1-.1-.49.12-.87.49-.1.1-.19.2-.26.29-.59-.51-1.33-.84-2.16-.89.01-.12.02-.25.02-.39,0-.53-.12-.97-.27-.97s-.27.43-.27.97c0,.14,0,.27.02.39-.82.05-1.57.38-2.16.89-.07-.1-.16-.19-.26-.29-.38-.38-.77-.6-.87-.49-.1.1.12.49.49.87.1.1.2.19.29.26-.51.59-.84,1.33-.89,2.16-.12-.01-.25-.02-.39-.02-.53,0-.97.12-.97.27s.43.27.97.27ZM13.54,14.6c.02.17.08.32.18.44-.11.09-.25.2-.39.34-.06.06-.11.12-.16.17-.19.15-.43.37-.68.62-.13.13-.25.25-.35.37-.46-.51-.74-1.17-.78-1.89.16,0,.33.01.51.01.34,0,.64-.02.88-.04.09,0,.18,0,.28,0,.2,0,.38-.01.52-.03ZM14.4,13.92c.32,0,.58.26.58.58s-.26.58-.58.58-.58-.26-.58-.58.26-.58.58-.58ZM12.72,16.41c.24-.24.44-.47.59-.65.07-.06.13-.12.2-.19.14-.14.26-.28.34-.39.12.1.27.16.44.18-.02.14-.03.32-.03.52,0,.08,0,.16,0,.24-.03.24-.05.56-.05.92,0,.18,0,.35.01.51-.73-.04-1.38-.33-1.89-.79.12-.11.24-.22.37-.35ZM14.53,16.17c0-.09,0-.18,0-.28,0-.2-.01-.38-.03-.52.17-.02.32-.08.44-.18.09.11.2.25.34.39.06.06.12.11.17.16.15.19.37.43.62.68.13.13.25.25.37.35-.51.46-1.17.74-1.89.78,0-.16.01-.33.01-.51,0-.34-.02-.64-.04-.88ZM16.32,16.18c-.24-.24-.47-.44-.65-.59-.06-.07-.12-.13-.19-.2-.14-.14-.28-.26-.39-.34.1-.12.16-.27.18-.44.14.02.32.03.52.03.08,0,.16,0,.24,0,.24.03.56.05.92.05.18,0,.35,0,.51-.01-.04.73-.33,1.38-.79,1.89-.11-.12-.22-.24-.35-.37ZM16.95,14.34c-.34,0-.64.02-.88.04-.09,0-.18,0-.28,0-.2,0-.38.01-.52.03-.02-.17-.08-.32-.18-.44.11-.09.25-.2.39-.34.06-.06.11-.12.16-.17.19-.15.43-.37.68-.62.13-.13.25-.25.35-.37.46.51.74,1.17.78,1.89-.16,0-.33-.01-.51-.01ZM16.09,12.59c-.24.24-.44.47-.59.65-.07.06-.13.12-.2.19-.14.14-.26.28-.34.39-.12-.1-.27-.16-.44-.18.02-.14.03-.32.03-.52,0-.08,0-.16,0-.24.03-.24.05-.56.05-.92,0-.18,0-.35-.01-.51.73.04,1.38.33,1.89.79-.12.11-.24.22-.37.35ZM14.28,12.83c0,.09,0,.18,0,.28,0,.2.01.38.03.52-.17.02-.32.08-.44.18-.09-.11-.2-.25-.34-.39-.06-.06-.12-.11-.17-.16-.15-.19-.37-.43-.62-.68-.13-.13-.25-.25-.37-.35.51-.46,1.17-.74,1.89-.78,0,.16-.01.33-.01.51,0,.34.02.64.04.88ZM12.49,12.82c.24.24.47.44.65.59.06.07.12.13.19.2.14.14.28.26.39.34-.1.12-.16.27-.18.44-.14-.02-.32-.03-.52-.03-.08,0-.16,0-.24,0-.24-.03-.56-.05-.92-.05-.18,0-.35,0-.51.01.04-.73.33-1.38.79-1.89.11.12.22.24.35.37Z"/><path class="cls-1" d="M1.5,5.46c.14,0,.27,0,.39-.02.05.82.38,1.57.89,2.16-.1.07-.19.16-.29.26-.38.38-.6.77-.49.87s.49-.12.87-.49c.1-.1.19-.2.26-.29.59.51,1.33.84,2.16.89-.01.12-.02.25-.02.39,0,.53.12.97.27.97s.27-.43.27-.97c0-.14,0-.27-.02-.39.82-.05,1.57-.38,2.16-.89.07.1.16.19.26.29.38.38.77.6.87.49.1-.1-.12-.49-.49-.87-.1-.1-.2-.19-.29-.26.51-.59.84-1.33.89-2.16.12.01.25.02.39.02.53,0,.97-.12.97-.27s-.43-.27-.97-.27c-.14,0-.27,0-.39.02-.05-.82-.38-1.57-.89-2.16.1-.07.19-.16.29-.26.38-.38.6-.77.49-.87-.1-.1-.49.12-.87.49-.1.1-.19.2-.26.29-.59-.51-1.33-.84-2.16-.89.01-.12.02-.25.02-.39,0-.53-.12-.97-.27-.97s-.27.43-.27.97c0,.14,0,.27.02.39-.82.05-1.57.38-2.16.89-.07-.1-.16-.19-.26-.29-.38-.38-.77-.6-.87-.49-.1.1.12.49.49.87.1.1.2.19.29.26-.51.59-.84,1.33-.89,2.16-.12-.01-.25-.02-.39-.02-.53,0-.97.12-.97.27s.43.27.97.27ZM4.67,5.3c.02.17.08.32.18.44-.11.09-.25.2-.39.34-.06.06-.11.12-.16.17-.19.15-.43.37-.68.62-.13.13-.25.25-.35.37-.46-.51-.74-1.17-.78-1.89.16,0,.33.01.51.01.34,0,.64-.02.88-.04.09,0,.18,0,.28,0,.2,0,.38-.01.52-.03ZM5.54,4.62c.32,0,.58.26.58.58s-.26.58-.58.58-.58-.26-.58-.58.26-.58.58-.58ZM3.85,7.11c.24-.24.44-.47.59-.65.07-.06.13-.12.2-.19.14-.14.26-.28.34-.39.12.1.27.16.44.18-.02.14-.03.32-.03.52,0,.08,0,.16,0,.24-.03.24-.05.56-.05.92,0,.18,0,.35.01.51-.73-.04-1.38-.33-1.89-.79.12-.11.24-.22.37-.35ZM5.66,6.86c0-.09,0-.18,0-.28,0-.2-.01-.38-.03-.52.17-.02.32-.08.44-.18.09.11.2.25.34.39.06.06.12.11.17.16.15.19.37.43.62.68.13.13.25.25.37.35-.51.46-1.17.74-1.89.78,0-.16.01-.33.01-.51,0-.34-.02-.64-.04-.88ZM7.45,6.88c-.24-.24-.47-.44-.65-.59-.06-.07-.12-.13-.19-.2-.14-.14-.28-.26-.39-.34.1-.12.16-.27.18-.44.14.02.32.03.52.03.08,0,.16,0,.24,0,.24.03.56.05.92.05.18,0,.35,0,.51-.01-.04.73-.33,1.38-.79,1.89-.11-.12-.22-.24-.35-.37ZM8.08,5.03c-.34,0-.64.02-.88.04-.09,0-.18,0-.28,0-.2,0-.38.01-.52.03-.02-.17-.08-.32-.18-.44.11-.09.25-.2.39-.34.06-.06.11-.12.16-.17.19-.15.43-.37.68-.62.13-.13.25-.25.35-.37.46.51.74,1.17.78,1.89-.16,0-.33-.01-.51-.01ZM7.22,3.28c-.24.24-.44.47-.59.65-.07.06-.13.12-.2.19-.14.14-.26.28-.34.39-.12-.1-.27-.16-.44-.18.02-.14.03-.32.03-.52,0-.08,0-.16,0-.24.03-.24.05-.56.05-.92,0-.18,0-.35-.01-.51.73.04,1.38.33,1.89.79-.12.11-.24.22-.37.35ZM5.41,3.53c0,.09,0,.18,0,.28,0,.2.01.38.03.52-.17.02-.32.08-.44.18-.09-.11-.2-.25-.34-.39-.06-.06-.12-.11-.17-.16-.15-.19-.37-.43-.62-.68-.13-.13-.25-.25-.37-.35.51-.46,1.17-.74,1.89-.78,0,.16-.01.33-.01.51,0,.34.02.64.04.88ZM3.62,3.51c.24.24.47.44.65.59.06.07.12.13.19.2.14.14.28.26.39.34-.1.12-.16.27-.18.44-.14-.02-.32-.03-.52-.03-.08,0-.16,0-.24,0-.24-.03-.56-.05-.92-.05-.18,0-.35,0-.51.01.04-.73.33-1.38.79-1.89.11.12.22.24.35.37Z"/><path class="cls-1" d="M19.37,23.77c.14,0,.27,0,.39-.02.05.82.38,1.57.89,2.16-.1.07-.19.16-.29.26-.38.38-.6.77-.49.87s.49-.12.87-.49c.1-.1.19-.2.26-.29.59.51,1.33.84,2.16.89-.01.12-.02.25-.02.39,0,.53.12.97.27.97s.27-.43.27-.97c0-.14,0-.27-.02-.39.82-.05,1.57-.38,2.16-.89.07.1.16.19.26.29.38.38.77.6.87.49.1-.1-.12-.49-.49-.87-.1-.1-.2-.19-.29-.26.51-.59.84-1.33.89-2.16.12.01.25.02.39.02.53,0,.97-.12.97-.27s-.43-.27-.97-.27c-.14,0-.27,0-.39.02-.05-.82-.38-1.57-.89-2.16.1-.07.19-.16.29-.26.38-.38.6-.77.49-.87-.1-.1-.49.12-.87.49-.1.1-.19.2-.26.29-.59-.51-1.33-.84-2.16-.89.01-.12.02-.25.02-.39,0-.53-.12-.97-.27-.97s-.27.43-.27.97c0,.14,0,.27.02.39-.82.05-1.57.38-2.16.89-.07-.1-.16-.19-.26-.29-.38-.38-.77-.6-.87-.49-.1.1.12.49.49.87.1.1.2.19.29.26-.51.59-.84,1.33-.89,2.16-.12-.01-.25-.02-.39-.02-.53,0-.97.12-.97.27s.43.27.97.27ZM22.54,23.6c.02.17.08.32.18.44-.11.09-.25.2-.39.34-.06.06-.11.12-.16.17-.19.15-.43.37-.68.62-.13.13-.25.25-.35.37-.46-.51-.74-1.17-.78-1.89.16,0,.33.01.51.01.34,0,.64-.02.88-.04.09,0,.18,0,.28,0,.2,0,.38-.01.52-.03ZM23.4,22.92c.32,0,.58.26.58.58s-.26.58-.58.58-.58-.26-.58-.58.26-.58.58-.58ZM21.72,25.41c.24-.24.44-.47.59-.65.07-.06.13-.12.2-.19.14-.14.26-.28.34-.39.12.1.27.16.44.18-.02.14-.03.32-.03.52,0,.08,0,.16,0,.24-.03.24-.05.56-.05.92,0,.18,0,.35.01.51-.73-.04-1.38-.33-1.89-.79.12-.11.24-.22.37-.35ZM23.53,25.17c0-.09,0-.18,0-.28,0-.2-.01-.38-.03-.52.17-.02.32-.08.44-.18.09.11.2.25.34.39.06.06.12.11.17.16.15.19.37.43.62.68.13.13.25.25.37.35-.51.46-1.17.74-1.89.78,0-.16.01-.33.01-.51,0-.34-.02-.64-.04-.88ZM25.32,25.18c-.24-.24-.47-.44-.65-.59-.06-.07-.12-.13-.19-.2-.14-.14-.28-.26-.39-.34.1-.12.16-.27.18-.44.14.02.32.03.52.03.08,0,.16,0,.24,0,.24.03.56.05.92.05.18,0,.35,0,.51-.01-.04.73-.33,1.38-.79,1.89-.11-.12-.22-.24-.35-.37ZM25.95,23.34c-.34,0-.64.02-.88.04-.09,0-.18,0-.28,0-.2,0-.38.01-.52.03-.02-.17-.08-.32-.18-.44.11-.09.25-.2.39-.34.06-.06.11-.12.16-.17.19-.15.43-.37.68-.62.13-.13.25-.25.35-.37.46.51.74,1.17.78,1.89-.16,0-.33-.01-.51-.01ZM25.09,21.59c-.24.24-.44.47-.59.65-.07.06-.13.12-.2.19-.14.14-.26.28-.34.39-.12-.1-.27-.16-.44-.18.02-.14.03-.32.03-.52,0-.08,0-.16,0-.24.03-.24.05-.56.05-.92,0-.18,0-.35-.01-.51.73.04,1.38.33,1.89.79-.12.11-.24.22-.37.35ZM23.28,21.83c0,.09,0,.18,0,.28,0,.2.01.38.03.52-.17.02-.32.08-.44.18-.09-.11-.2-.25-.34-.39-.06-.06-.12-.11-.17-.16-.15-.19-.37-.43-.62-.68-.13-.13-.25-.25-.37-.35.51-.46,1.17-.74,1.89-.78,0,.16-.01.33-.01.51,0,.34.02.64.04.88ZM21.49,21.82c.24.24.47.44.65.59.06.07.12.13.19.2.14.14.28.26.39.34-.1.12-.16.27-.18.44-.14-.02-.32-.03-.52-.03-.08,0-.16,0-.24,0-.24-.03-.56-.05-.92-.05-.18,0-.35,0-.51.01.04-.73.33-1.38.79-1.89.11.12.22.24.35.37Z"/><path class="cls-1" d="M28.37,32.77c.14,0,.27,0,.39-.02.05.82.38,1.57.89,2.16-.1.07-.19.16-.29.26-.38.38-.6.77-.49.87s.49-.12.87-.49c.1-.1.19-.2.26-.29.59.51,1.33.84,2.16.89-.01.12-.02.25-.02.39,0,.53.12.97.27.97s.27-.43.27-.97c0-.14,0-.27-.02-.39.82-.05,1.57-.38,2.16-.89.07.1.16.19.26.29.38.38.77.6.87.49.1-.1-.12-.49-.49-.87-.1-.1-.2-.19-.29-.26.51-.59.84-1.33.89-2.16.12.01.25.02.39.02.53,0,.97-.12.97-.27s-.43-.27-.97-.27c-.14,0-.27,0-.39.02-.05-.82-.38-1.57-.89-2.16.1-.07.19-.16.29-.26.38-.38.6-.77.49-.87-.1-.1-.49.12-.87.49-.1.1-.19.2-.26.29-.59-.51-1.33-.84-2.16-.89.01-.12.02-.25.02-.39,0-.53-.12-.97-.27-.97s-.27.43-.27.97c0,.14,0,.27.02.39-.82.05-1.57.38-2.16.89-.07-.1-.16-.19-.26-.29-.38-.38-.77-.6-.87-.49-.1.1.12.49.49.87.1.1.2.19.29.26-.51.59-.84,1.33-.89,2.16-.12-.01-.25-.02-.39-.02-.53,0-.97.12-.97.27s.43.27.97.27ZM31.54,32.6c.02.17.08.32.18.44-.11.09-.25.2-.39.34-.06.06-.11.12-.16.17-.19.15-.43.37-.68.62-.13.13-.25.25-.35.37-.46-.51-.74-1.17-.78-1.89.16,0,.33.01.51.01.34,0,.64-.02.88-.04.09,0,.18,0,.28,0,.2,0,.38-.01.52-.03ZM32.4,31.92c.32,0,.58.26.58.58s-.26.58-.58.58-.58-.26-.58-.58.26-.58.58-.58ZM30.72,34.41c.24-.24.44-.47.59-.65.07-.06.13-.12.2-.19.14-.14.26-.28.34-.39.12.1.27.16.44.18-.02.14-.03.32-.03.52,0,.08,0,.16,0,.24-.03.24-.05.56-.05.92,0,.18,0,.35.01.51-.73-.04-1.38-.33-1.89-.79.12-.11.24-.22.37-.35ZM32.53,34.17c0-.09,0-.18,0-.28,0-.2-.01-.38-.03-.52.17-.02.32-.08.44-.18.09.11.2.25.34.39.06.06.12.11.17.16.15.19.37.43.62.68.13.13.25.25.37.35-.51.46-1.17.74-1.89.78,0-.16.01-.33.01-.51,0-.34-.02-.64-.04-.88ZM34.32,34.18c-.24-.24-.47-.44-.65-.59-.06-.07-.12-.13-.19-.2-.14-.14-.28-.26-.39-.34.1-.12.16-.27.18-.44.14.02.32.03.52.03.08,0,.16,0,.24,0,.24.03.56.05.92.05.18,0,.35,0,.51-.01-.04.73-.33,1.38-.79,1.89-.11-.12-.22-.24-.35-.37ZM34.95,32.34c-.34,0-.64.02-.88.04-.09,0-.18,0-.28,0-.2,0-.38.01-.52.03-.02-.17-.08-.32-.18-.44.11-.09.25-.2.39-.34.06-.06.11-.12.16-.17.19-.15.43-.37.68-.62.13-.13.25-.25.35-.37.46.51.74,1.17.78,1.89-.16,0-.33-.01-.51-.01ZM34.09,30.59c-.24.24-.44.47-.59.65-.07.06-.13.12-.2.19-.14.14-.26.28-.34.39-.12-.1-.27-.16-.44-.18.02-.14.03-.32.03-.52,0-.08,0-.16,0-.24.03-.24.05-.56.05-.92,0-.18,0-.35-.01-.51.73.04,1.38.33,1.89.79-.12.11-.24.22-.37.35ZM32.28,30.83c0,.09,0,.18,0,.28,0,.2.01.38.03.52-.17.02-.32.08-.44.18-.09-.11-.2-.25-.34-.39-.06-.06-.12-.11-.17-.16-.15-.19-.37-.43-.62-.68-.13-.13-.25-.25-.37-.35.51-.46,1.17-.74,1.89-.78,0,.16-.01.33-.01.51,0,.34.02.64.04.88ZM30.49,30.82c.24.24.47.44.65.59.06.07.12.13.19.2.14.14.28.26.39.34-.1.12-.16.27-.18.44-.14-.02-.32-.03-.52-.03-.08,0-.16,0-.24,0-.24-.03-.56-.05-.92-.05-.18,0-.35,0-.51.01.04-.73.33-1.38.79-1.89.11.12.22.24.35.37Z"/><path class="cls-1" d="M37.37,41.77c.14,0,.27,0,.39-.02.05.82.38,1.57.89,2.16-.1.07-.19.16-.29.26-.38.38-.6.77-.49.87s.49-.12.87-.49c.1-.1.19-.2.26-.29.59.51,1.33.84,2.16.89-.01.12-.02.25-.02.39,0,.53.12.97.27.97s.27-.43.27-.97c0-.14,0-.27-.02-.39.82-.05,1.57-.38,2.16-.89.07.1.16.19.26.29.38.38.77.6.87.49.1-.1-.12-.49-.49-.87-.1-.1-.2-.19-.29-.26.51-.59.84-1.33.89-2.16.12.01.25.02.39.02.53,0,.97-.12.97-.27s-.43-.27-.97-.27c-.14,0-.27,0-.39.02-.05-.82-.38-1.57-.89-2.16.1-.07.19-.16.29-.26.38-.38.6-.77.49-.87-.1-.1-.49.12-.87.49-.1.1-.19.2-.26.29-.59-.51-1.33-.84-2.16-.89.01-.12.02-.25.02-.39,0-.53-.12-.97-.27-.97s-.27.43-.27.97c0,.14,0,.27.02.39-.82.05-1.57.38-2.16.89-.07-.1-.16-.19-.26-.29-.38-.38-.77-.6-.87-.49-.1.1.12.49.49.87.1.1.2.19.29.26-.51.59-.84,1.33-.89,2.16-.12-.01-.25-.02-.39-.02-.53,0-.97.12-.97.27s.43.27.97.27ZM40.54,41.6c.02.17.08.32.18.44-.11.09-.25.2-.39.34-.06.06-.11.12-.16.17-.19.15-.43.37-.68.62-.13.13-.25.25-.35.37-.46-.51-.74-1.17-.78-1.89.16,0,.33.01.51.01.34,0,.64-.02.88-.04.09,0,.18,0,.28,0,.2,0,.38-.01.52-.03ZM41.4,40.92c.32,0,.58.26.58.58s-.26.58-.58.58-.58-.26-.58-.58.26-.58.58-.58ZM39.72,43.41c.24-.24.44-.47.59-.65.07-.06.13-.12.2-.19.14-.14.26-.28.34-.39.12.1.27.16.44.18-.02.14-.03.32-.03.52,0,.08,0,.16,0,.24-.03.24-.05.56-.05.92,0,.18,0,.35.01.51-.73-.04-1.38-.33-1.89-.79.12-.11.24-.22.37-.35ZM41.53,43.17c0-.09,0-.18,0-.28,0-.2-.01-.38-.03-.52.17-.02.32-.08.44-.18.09.11.2.25.34.39.06.06.12.11.17.16.15.19.37.43.62.68.13.13.25.25.37.35-.51.46-1.17.74-1.89.78,0-.16.01-.33.01-.51,0-.34-.02-.64-.04-.88ZM43.32,43.18c-.24-.24-.47-.44-.65-.59-.06-.07-.12-.13-.19-.2-.14-.14-.28-.26-.39-.34.1-.12.16-.27.18-.44.14.02.32.03.52.03.08,0,.16,0,.24,0,.24.03.56.05.92.05.18,0,.35,0,.51-.01-.04.73-.33,1.38-.79,1.89-.11-.12-.22-.24-.35-.37ZM43.95,41.34c-.34,0-.64.02-.88.04-.09,0-.18,0-.28,0-.2,0-.38.01-.52.03-.02-.17-.08-.32-.18-.44.11-.09.25-.2.39-.34.06-.06.11-.12.16-.17.19-.15.43-.37.68-.62.13-.13.25-.25.35-.37.46.51.74,1.17.78,1.89-.16,0-.33-.01-.51-.01ZM43.09,39.59c-.24.24-.44.47-.59.65-.07.06-.13.12-.2.19-.14.14-.26.28-.34.39-.12-.1-.27-.16-.44-.18.02-.14.03-.32.03-.52,0-.08,0-.16,0-.24.03-.24.05-.56.05-.92,0-.18,0-.35-.01-.51.73.04,1.38.33,1.89.79-.12.11-.24.22-.37.35ZM41.28,39.83c0,.09,0,.18,0,.28,0,.2.01.38.03.52-.17.02-.32.08-.44.18-.09-.11-.2-.25-.34-.39-.06-.06-.12-.11-.17-.16-.15-.19-.37-.43-.62-.68-.13-.13-.25-.25-.37-.35.51-.46,1.17-.74,1.89-.78,0,.16-.01.33-.01.51,0,.34.02.64.04.88ZM39.49,39.82c.24.24.47.44.65.59.06.07.12.13.19.2.14.14.28.26.39.34-.1.12-.16.27-.18.44-.14-.02-.32-.03-.52-.03-.08,0-.16,0-.24,0-.24-.03-.56-.05-.92-.05-.18,0-.35,0-.51.01.04-.73.33-1.38.79-1.89.11.12.22.24.35.37Z"/><path class="cls-1" d="M46.37,50.77c.14,0,.27,0,.39-.02.05.82.38,1.57.89,2.16-.1.07-.19.16-.29.26-.38.38-.6.77-.49.87s.49-.12.87-.49c.1-.1.19-.2.26-.29.59.51,1.33.84,2.16.89-.01.12-.02.25-.02.39,0,.53.12.97.27.97s.27-.43.27-.97c0-.14,0-.27-.02-.39.82-.05,1.57-.38,2.16-.89.07.1.16.19.26.29.38.38.77.6.87.49.1-.1-.12-.49-.49-.87-.1-.1-.2-.19-.29-.26.51-.59.84-1.33.89-2.16.12.01.25.02.39.02.53,0,.97-.12.97-.27s-.43-.27-.97-.27c-.14,0-.27,0-.39.02-.05-.82-.38-1.57-.89-2.16.1-.07.19-.16.29-.26.38-.38.6-.77.49-.87-.1-.1-.49.12-.87.49-.1.1-.19.2-.26.29-.59-.51-1.33-.84-2.16-.89.01-.12.02-.25.02-.39,0-.53-.12-.97-.27-.97s-.27.43-.27.97c0,.14,0,.27.02.39-.82.05-1.57.38-2.16.89-.07-.1-.16-.19-.26-.29-.38-.38-.77-.6-.87-.49-.1.1.12.49.49.87.1.1.2.19.29.26-.51.59-.84,1.33-.89,2.16-.12-.01-.25-.02-.39-.02-.53,0-.97.12-.97.27s.43.27.97.27ZM49.54,50.6c.02.17.08.32.18.44-.11.09-.25.2-.39.34-.06.06-.11.12-.16.17-.19.15-.43.37-.68.62-.13.13-.25.25-.35.37-.46-.51-.74-1.17-.78-1.89.16,0,.33.01.51.01.34,0,.64-.02.88-.04.09,0,.18,0,.28,0,.2,0,.38-.01.52-.03ZM50.4,49.92c.32,0,.58.26.58.58s-.26.58-.58.58-.58-.26-.58-.58.26-.58.58-.58ZM48.72,52.41c.24-.24.44-.47.59-.65.07-.06.13-.12.2-.19.14-.14.26-.28.34-.39.12.1.27.16.44.18-.02.14-.03.32-.03.52,0,.08,0,.16,0,.24-.03.24-.05.56-.05.92,0,.18,0,.35.01.51-.73-.04-1.38-.33-1.89-.79.12-.11.24-.22.37-.35ZM50.53,52.17c0-.09,0-.18,0-.28,0-.2-.01-.38-.03-.52.17-.02.32-.08.44-.18.09.11.2.25.34.39.06.06.12.11.17.16.15.19.37.43.62.68.13.13.25.25.37.35-.51.46-1.17.74-1.89.78,0-.16.01-.33.01-.51,0-.34-.02-.64-.04-.88ZM52.32,52.18c-.24-.24-.47-.44-.65-.59-.06-.07-.12-.13-.19-.2-.14-.14-.28-.26-.39-.34.1-.12.16-.27.18-.44.14.02.32.03.52.03.08,0,.16,0,.24,0,.24.03.56.05.92.05.18,0,.35,0,.51-.01-.04.73-.33,1.38-.79,1.89-.11-.12-.22-.24-.35-.37ZM52.95,50.34c-.34,0-.64.02-.88.04-.09,0-.18,0-.28,0-.2,0-.38.01-.52.03-.02-.17-.08-.32-.18-.44.11-.09.25-.2.39-.34.06-.06.11-.12.16-.17.19-.15.43-.37.68-.62.13-.13.25-.25.35-.37.46.51.74,1.17.78,1.89-.16,0-.33-.01-.51-.01ZM52.09,48.59c-.24.24-.44.47-.59.65-.07.06-.13.12-.2.19-.14.14-.26.28-.34.39-.12-.1-.27-.16-.44-.18.02-.14.03-.32.03-.52,0-.08,0-.16,0-.24.03-.24.05-.56.05-.92,0-.18,0-.35-.01-.51.73.04,1.38.33,1.89.79-.12.11-.24.22-.37.35ZM50.28,48.83c0,.09,0,.18,0,.28,0,.2.01.38.03.52-.17.02-.32.08-.44.18-.09-.11-.2-.25-.34-.39-.06-.06-.12-.11-.17-.16-.15-.19-.37-.43-.62-.68-.13-.13-.25-.25-.37-.35.51-.46,1.17-.74,1.89-.78,0,.16-.01.33-.01.51,0,.34.02.64.04.88ZM48.49,48.82c.24.24.47.44.65.59.06.07.12.13.19.2.14.14.28.26.39.34-.1.12-.16.27-.18.44-.14-.02-.32-.03-.52-.03-.08,0-.16,0-.24,0-.24-.03-.56-.05-.92-.05-.18,0-.35,0-.51.01.04-.73.33-1.38.79-1.89.11.12.22.24.35.37Z"/><path class="cls-1" d="M55.37,59.77c.14,0,.27,0,.39-.02.05.82.38,1.57.89,2.16-.1.07-.19.16-.29.26-.38.38-.6.77-.49.87s.49-.12.87-.49c.1-.1.19-.2.26-.29.59.51,1.33.84,2.16.89-.01.12-.02.25-.02.39,0,.53.12.97.27.97s.27-.43.27-.97c0-.14,0-.27-.02-.39.82-.05,1.57-.38,2.16-.89.07.1.16.19.26.29.38.38.77.6.87.49.1-.1-.12-.49-.49-.87-.1-.1-.2-.19-.29-.26.51-.59.84-1.33.89-2.16.12.01.25.02.39.02.53,0,.97-.12.97-.27s-.43-.27-.97-.27c-.14,0-.27,0-.39.02-.05-.82-.38-1.57-.89-2.16.1-.07.19-.16.29-.26.38-.38.6-.77.49-.87-.1-.1-.49.12-.87.49-.1.1-.19.2-.26.29-.59-.51-1.33-.84-2.16-.89.01-.12.02-.25.02-.39,0-.53-.12-.97-.27-.97s-.27.43-.27.97c0,.14,0,.27.02.39-.82.05-1.57.38-2.16.89-.07-.1-.16-.19-.26-.29-.38-.38-.77-.6-.87-.49-.1.1.12.49.49.87.1.1.2.19.29.26-.51.59-.84,1.33-.89,2.16-.12-.01-.25-.02-.39-.02-.53,0-.97.12-.97.27s.43.27.97.27ZM58.54,59.6c.02.17.08.32.18.44-.11.09-.25.2-.39.34-.06.06-.11.12-.16.17-.19.15-.43.37-.68.62-.13.13-.25.25-.35.37-.46-.51-.74-1.17-.78-1.89.16,0,.33.01.51.01.34,0,.64-.02.88-.04.09,0,.18,0,.28,0,.2,0,.38-.01.52-.03ZM59.4,58.92c.32,0,.58.26.58.58s-.26.58-.58.58-.58-.26-.58-.58.26-.58.58-.58ZM57.72,61.41c.24-.24.44-.47.59-.65.07-.06.13-.12.2-.19.14-.14.26-.28.34-.39.12.1.27.16.44.18-.02.14-.03.32-.03.52,0,.08,0,.16,0,.24-.03.24-.05.56-.05.92,0,.18,0,.35.01.51-.73-.04-1.38-.33-1.89-.79.12-.11.24-.22.37-.35ZM59.53,61.17c0-.09,0-.18,0-.28,0-.2-.01-.38-.03-.52.17-.02.32-.08.44-.18.09.11.2.25.34.39.06.06.12.11.17.16.15.19.37.43.62.68.13.13.25.25.37.35-.51.46-1.17.74-1.89.78,0-.16.01-.33.01-.51,0-.34-.02-.64-.04-.88ZM61.32,61.18c-.24-.24-.47-.44-.65-.59-.06-.07-.12-.13-.19-.2-.14-.14-.28-.26-.39-.34.1-.12.16-.27.18-.44.14.02.32.03.52.03.08,0,.16,0,.24,0,.24.03.56.05.92.05.18,0,.35,0,.51-.01-.04.73-.33,1.38-.79,1.89-.11-.12-.22-.24-.35-.37ZM61.95,59.34c-.34,0-.64.02-.88.04-.09,0-.18,0-.28,0-.2,0-.38.01-.52.03-.02-.17-.08-.32-.18-.44.11-.09.25-.2.39-.34.06-.06.11-.12.16-.17.19-.15.43-.37.68-.62.13-.13.25-.25.35-.37.46.51.74,1.17.78,1.89-.16,0-.33-.01-.51-.01ZM61.09,57.59c-.24.24-.44.47-.59.65-.07.06-.13.12-.2.19-.14.14-.26.28-.34.39-.12-.1-.27-.16-.44-.18.02-.14.03-.32.03-.52,0-.08,0-.16,0-.24.03-.24.05-.56.05-.92,0-.18,0-.35-.01-.51.73.04,1.38.33,1.89.79-.12.11-.24.22-.37.35ZM59.28,57.83c0,.09,0,.18,0,.28,0,.2.01.38.03.52-.17.02-.32.08-.44.18-.09-.11-.2-.25-.34-.39-.06-.06-.12-.11-.17-.16-.15-.19-.37-.43-.62-.68-.13-.13-.25-.25-.37-.35.51-.46,1.17-.74,1.89-.78,0,.16-.01.33-.01.51,0,.34.02.64.04.88ZM57.49,57.82c.24.24.47.44.65.59.06.07.12.13.19.2.14.14.28.26.39.34-.1.12-.16.27-.18.44-.14-.02-.32-.03-.52-.03-.08,0-.16,0-.24,0-.24-.03-.56-.05-.92-.05-.18,0-.35,0-.51.01.04-.73.33-1.38.79-1.89.11.12.22.24.35.37Z"/><path class="cls-1" d="M64.1,68.66c.14,0,.27,0,.39-.02.05.82.38,1.57.89,2.16-.1.07-.19.16-.29.26-.38.38-.6.77-.49.87s.49-.12.87-.49c.1-.1.19-.2.26-.29.59.51,1.33.84,2.16.89-.01.12-.02.25-.02.39,0,.53.12.97.27.97s.27-.43.27-.97c0-.14,0-.27-.02-.39.82-.05,1.57-.38,2.16-.89.07.1.16.19.26.29.38.38.77.6.87.49.1-.1-.12-.49-.49-.87-.1-.1-.2-.19-.29-.26.51-.59.84-1.33.89-2.16.12.01.25.02.39.02.53,0,.97-.12.97-.27s-.43-.27-.97-.27c-.14,0-.27,0-.39.02-.05-.82-.38-1.57-.89-2.16.1-.07.19-.16.29-.26.38-.38.6-.77.49-.87-.1-.1-.49.12-.87.49-.1.1-.19.2-.26.29-.59-.51-1.33-.84-2.16-.89.01-.12.02-.25.02-.39,0-.53-.12-.97-.27-.97s-.27.43-.27.97c0,.14,0,.27.02.39-.82.05-1.57.38-2.16.89-.07-.1-.16-.19-.26-.29-.38-.38-.77-.6-.87-.49-.1.1.12.49.49.87.1.1.2.19.29.26-.51.59-.84,1.33-.89,2.16-.12-.01-.25-.02-.39-.02-.53,0-.97.12-.97.27s.43.27.97.27ZM67.27,68.49c.02.17.08.32.18.44-.11.09-.25.2-.39.34-.06.06-.11.12-.16.17-.19.15-.43.37-.68.62-.13.13-.25.25-.35.37-.46-.51-.74-1.17-.78-1.89.16,0,.33.01.51.01.34,0,.64-.02.88-.04.09,0,.18,0,.28,0,.2,0,.38-.01.52-.03ZM68.13,67.81c.32,0,.58.26.58.58s-.26.58-.58.58-.58-.26-.58-.58.26-.58.58-.58ZM66.45,70.31c.24-.24.44-.47.59-.65.07-.06.13-.12.2-.19.14-.14.26-.28.34-.39.12.1.27.16.44.18-.02.14-.03.32-.03.52,0,.08,0,.16,0,.24-.03.24-.05.56-.05.92,0,.18,0,.35.01.51-.73-.04-1.38-.33-1.89-.79.12-.11.24-.22.37-.35ZM68.26,70.06c0-.09,0-.18,0-.28,0-.2-.01-.38-.03-.52.17-.02.32-.08.44-.18.09.11.2.25.34.39.06.06.12.11.17.16.15.19.37.43.62.68.13.13.25.25.37.35-.51.46-1.17.74-1.89.78,0-.16.01-.33.01-.51,0-.34-.02-.64-.04-.88ZM70.05,70.08c-.24-.24-.47-.44-.65-.59-.06-.07-.12-.13-.19-.2-.14-.14-.28-.26-.39-.34.1-.12.16-.27.18-.44.14.02.32.03.52.03.08,0,.16,0,.24,0,.24.03.56.05.92.05.18,0,.35,0,.51-.01-.04.73-.33,1.38-.79,1.89-.11-.12-.22-.24-.35-.37ZM70.68,68.23c-.34,0-.64.02-.88.04-.09,0-.18,0-.28,0-.2,0-.38.01-.52.03-.02-.17-.08-.32-.18-.44.11-.09.25-.2.39-.34.06-.06.11-.12.16-.17.19-.15.43-.37.68-.62.13-.13.25-.25.35-.37.46.51.74,1.17.78,1.89-.16,0-.33-.01-.51-.01ZM69.82,66.48c-.24.24-.44.47-.59.65-.07.06-.13.12-.2.19-.14.14-.26.28-.34.39-.12-.1-.27-.16-.44-.18.02-.14.03-.32.03-.52,0-.08,0-.16,0-.24.03-.24.05-.56.05-.92,0-.18,0-.35-.01-.51.73.04,1.38.33,1.89.79-.12.11-.24.22-.37.35ZM68.01,66.73c0,.09,0,.18,0,.28,0,.2.01.38.03.52-.17.02-.32.08-.44.18-.09-.11-.2-.25-.34-.39-.06-.06-.12-.11-.17-.16-.15-.19-.37-.43-.62-.68-.13-.13-.25-.25-.37-.35.51-.46,1.17-.74,1.89-.78,0,.16-.01.33-.01.51,0,.34.02.64.04.88ZM66.22,66.71c.24.24.47.44.65.59.06.07.12.13.19.2.14.14.28.26.39.34-.1.12-.16.27-.18.44-.14-.02-.32-.03-.52-.03-.08,0-.16,0-.24,0-.24-.03-.56-.05-.92-.05-.18,0-.35,0-.51.01.04-.73.33-1.38.79-1.89.11.12.22.24.35.37Z"/><path class="cls-1" d="M19,5.37c.14,0,.27,0,.39-.02.05.82.38,1.57.89,2.16-.1.07-.19.16-.29.26-.38.38-.6.77-.49.87s.49-.12.87-.49c.1-.1.19-.2.26-.29.59.51,1.33.84,2.16.89-.01.12-.02.25-.02.39,0,.53.12.97.27.97s.27-.43.27-.97c0-.14,0-.27-.02-.39.82-.05,1.57-.38,2.16-.89.07.1.16.19.26.29.38.38.77.6.87.49.1-.1-.12-.49-.49-.87-.1-.1-.2-.19-.29-.26.51-.59.84-1.33.89-2.16.12.01.25.02.39.02.53,0,.97-.12.97-.27s-.43-.27-.97-.27c-.14,0-.27,0-.39.02-.05-.82-.38-1.57-.89-2.16.1-.07.19-.16.29-.26.38-.38.6-.77.49-.87-.1-.1-.49.12-.87.49-.1.1-.19.2-.26.29-.59-.51-1.33-.84-2.16-.89.01-.12.02-.25.02-.39,0-.53-.12-.97-.27-.97s-.27.43-.27.97c0,.14,0,.27.02.39-.82.05-1.57.38-2.16.89-.07-.1-.16-.19-.26-.29-.38-.38-.77-.6-.87-.49-.1.1.12.49.49.87.1.1.2.19.29.26-.51.59-.84,1.33-.89,2.16-.12-.01-.25-.02-.39-.02-.53,0-.97.12-.97.27s.43.27.97.27ZM22.17,5.2c.02.17.08.32.18.44-.11.09-.25.2-.39.34-.06.06-.11.12-.16.17-.19.15-.43.37-.68.62-.13.13-.25.25-.35.37-.46-.51-.74-1.17-.78-1.89.16,0,.33.01.51.01.34,0,.64-.02.88-.04.09,0,.18,0,.28,0,.2,0,.38-.01.52-.03ZM23.04,4.52c.32,0,.58.26.58.58s-.26.58-.58.58-.58-.26-.58-.58.26-.58.58-.58ZM21.35,7.01c.24-.24.44-.47.59-.65.07-.06.13-.12.2-.19.14-.14.26-.28.34-.39.12.1.27.16.44.18-.02.14-.03.32-.03.52,0,.08,0,.16,0,.24-.03.24-.05.56-.05.92,0,.18,0,.35.01.51-.73-.04-1.38-.33-1.89-.79.12-.11.24-.22.37-.35ZM23.16,6.76c0-.09,0-.18,0-.28,0-.2-.01-.38-.03-.52.17-.02.32-.08.44-.18.09.11.2.25.34.39.06.06.12.11.17.16.15.19.37.43.62.68.13.13.25.25.37.35-.51.46-1.17.74-1.89.78,0-.16.01-.33.01-.51,0-.34-.02-.64-.04-.88ZM24.95,6.78c-.24-.24-.47-.44-.65-.59-.06-.07-.12-.13-.19-.2-.14-.14-.28-.26-.39-.34.1-.12.16-.27.18-.44.14.02.32.03.52.03.08,0,.16,0,.24,0,.24.03.56.05.92.05.18,0,.35,0,.51-.01-.04.73-.33,1.38-.79,1.89-.11-.12-.22-.24-.35-.37ZM25.58,4.94c-.34,0-.64.02-.88.04-.09,0-.18,0-.28,0-.2,0-.38.01-.52.03-.02-.17-.08-.32-.18-.44.11-.09.25-.2.39-.34.06-.06.11-.12.16-.17.19-.15.43-.37.68-.62.13-.13.25-.25.35-.37.46.51.74,1.17.78,1.89-.16,0-.33-.01-.51-.01ZM24.72,3.18c-.24.24-.44.47-.59.65-.07.06-.13.12-.2.19-.14.14-.26.28-.34.39-.12-.1-.27-.16-.44-.18.02-.14.03-.32.03-.52,0-.08,0-.16,0-.24.03-.24.05-.56.05-.92,0-.18,0-.35-.01-.51.73.04,1.38.33,1.89.79-.12.11-.24.22-.37.35ZM22.91,3.43c0,.09,0,.18,0,.28,0,.2.01.38.03.52-.17.02-.32.08-.44.18-.09-.11-.2-.25-.34-.39-.06-.06-.12-.11-.17-.16-.15-.19-.37-.43-.62-.68-.13-.13-.25-.25-.37-.35.51-.46,1.17-.74,1.89-.78,0,.16-.01.33-.01.51,0,.34.02.64.04.88ZM21.12,3.42c.24.24.47.44.65.59.06.07.12.13.19.2.14.14.28.26.39.34-.1.12-.16.27-.18.44-.14-.02-.32-.03-.52-.03-.08,0-.16,0-.24,0-.24-.03-.56-.05-.92-.05-.18,0-.35,0-.51.01.04-.73.33-1.38.79-1.89.11.12.22.24.35.37Z"/><path class="cls-1" d="M28,14.37c.14,0,.27,0,.39-.02.05.82.38,1.57.89,2.16-.1.07-.19.16-.29.26-.38.38-.6.77-.49.87s.49-.12.87-.49c.1-.1.19-.2.26-.29.59.51,1.33.84,2.16.89-.01.12-.02.25-.02.39,0,.53.12.97.27.97s.27-.43.27-.97c0-.14,0-.27-.02-.39.82-.05,1.57-.38,2.16-.89.07.1.16.19.26.29.38.38.77.6.87.49.1-.1-.12-.49-.49-.87-.1-.1-.2-.19-.29-.26.51-.59.84-1.33.89-2.16.12.01.25.02.39.02.53,0,.97-.12.97-.27s-.43-.27-.97-.27c-.14,0-.27,0-.39.02-.05-.82-.38-1.57-.89-2.16.1-.07.19-.16.29-.26.38-.38.6-.77.49-.87-.1-.1-.49.12-.87.49-.1.1-.19.2-.26.29-.59-.51-1.33-.84-2.16-.89.01-.12.02-.25.02-.39,0-.53-.12-.97-.27-.97s-.27.43-.27.97c0,.14,0,.27.02.39-.82.05-1.57.38-2.16.89-.07-.1-.16-.19-.26-.29-.38-.38-.77-.6-.87-.49-.1.1.12.49.49.87.1.1.2.19.29.26-.51.59-.84,1.33-.89,2.16-.12-.01-.25-.02-.39-.02-.53,0-.97.12-.97.27s.43.27.97.27ZM31.17,14.2c.02.17.08.32.18.44-.11.09-.25.2-.39.34-.06.06-.11.12-.16.17-.19.15-.43.37-.68.62-.13.13-.25.25-.35.37-.46-.51-.74-1.17-.78-1.89.16,0,.33.01.51.01.34,0,.64-.02.88-.04.09,0,.18,0,.28,0,.2,0,.38-.01.52-.03ZM32.04,13.52c.32,0,.58.26.58.58s-.26.58-.58.58-.58-.26-.58-.58.26-.58.58-.58ZM30.35,16.01c.24-.24.44-.47.59-.65.07-.06.13-.12.2-.19.14-.14.26-.28.34-.39.12.1.27.16.44.18-.02.14-.03.32-.03.52,0,.08,0,.16,0,.24-.03.24-.05.56-.05.92,0,.18,0,.35.01.51-.73-.04-1.38-.33-1.89-.79.12-.11.24-.22.37-.35ZM32.16,15.76c0-.09,0-.18,0-.28,0-.2-.01-.38-.03-.52.17-.02.32-.08.44-.18.09.11.2.25.34.39.06.06.12.11.17.16.15.19.37.43.62.68.13.13.25.25.37.35-.51.46-1.17.74-1.89.78,0-.16.01-.33.01-.51,0-.34-.02-.64-.04-.88ZM33.95,15.78c-.24-.24-.47-.44-.65-.59-.06-.07-.12-.13-.19-.2-.14-.14-.28-.26-.39-.34.1-.12.16-.27.18-.44.14.02.32.03.52.03.08,0,.16,0,.24,0,.24.03.56.05.92.05.18,0,.35,0,.51-.01-.04.73-.33,1.38-.79,1.89-.11-.12-.22-.24-.35-.37ZM34.58,13.94c-.34,0-.64.02-.88.04-.09,0-.18,0-.28,0-.2,0-.38.01-.52.03-.02-.17-.08-.32-.18-.44.11-.09.25-.2.39-.34.06-.06.11-.12.16-.17.19-.15.43-.37.68-.62.13-.13.25-.25.35-.37.46.51.74,1.17.78,1.89-.16,0-.33-.01-.51-.01ZM33.72,12.18c-.24.24-.44.47-.59.65-.07.06-.13.12-.2.19-.14.14-.26.28-.34.39-.12-.1-.27-.16-.44-.18.02-.14.03-.32.03-.52,0-.08,0-.16,0-.24.03-.24.05-.56.05-.92,0-.18,0-.35-.01-.51.73.04,1.38.33,1.89.79-.12.11-.24.22-.37.35ZM31.91,12.43c0,.09,0,.18,0,.28,0,.2.01.38.03.52-.17.02-.32.08-.44.18-.09-.11-.2-.25-.34-.39-.06-.06-.12-.11-.17-.16-.15-.19-.37-.43-.62-.68-.13-.13-.25-.25-.37-.35.51-.46,1.17-.74,1.89-.78,0,.16-.01.33-.01.51,0,.34.02.64.04.88ZM30.12,12.42c.24.24.47.44.65.59.06.07.12.13.19.2.14.14.28.26.39.34-.1.12-.16.27-.18.44-.14-.02-.32-.03-.52-.03-.08,0-.16,0-.24,0-.24-.03-.56-.05-.92-.05-.18,0-.35,0-.51.01.04-.73.33-1.38.79-1.89.11.12.22.24.35.37Z"/><path class="cls-1" d="M37,23.37c.14,0,.27,0,.39-.02.05.82.38,1.57.89,2.16-.1.07-.19.16-.29.26-.38.38-.6.77-.49.87s.49-.12.87-.49c.1-.1.19-.2.26-.29.59.51,1.33.84,2.16.89-.01.12-.02.25-.02.39,0,.53.12.97.27.97s.27-.43.27-.97c0-.14,0-.27-.02-.39.82-.05,1.57-.38,2.16-.89.07.1.16.19.26.29.38.38.77.6.87.49.1-.1-.12-.49-.49-.87-.1-.1-.2-.19-.29-.26.51-.59.84-1.33.89-2.16.12.01.25.02.39.02.53,0,.97-.12.97-.27s-.43-.27-.97-.27c-.14,0-.27,0-.39.02-.05-.82-.38-1.57-.89-2.16.1-.07.19-.16.29-.26.38-.38.6-.77.49-.87-.1-.1-.49.12-.87.49-.1.1-.19.2-.26.29-.59-.51-1.33-.84-2.16-.89.01-.12.02-.25.02-.39,0-.53-.12-.97-.27-.97s-.27.43-.27.97c0,.14,0,.27.02.39-.82.05-1.57.38-2.16.89-.07-.1-.16-.19-.26-.29-.38-.38-.77-.6-.87-.49-.1.1.12.49.49.87.1.1.2.19.29.26-.51.59-.84,1.33-.89,2.16-.12-.01-.25-.02-.39-.02-.53,0-.97.12-.97.27s.43.27.97.27ZM40.17,23.2c.02.17.08.32.18.44-.11.09-.25.2-.39.34-.06.06-.11.12-.16.17-.19.15-.43.37-.68.62-.13.13-.25.25-.35.37-.46-.51-.74-1.17-.78-1.89.16,0,.33.01.51.01.34,0,.64-.02.88-.04.09,0,.18,0,.28,0,.2,0,.38-.01.52-.03ZM41.04,22.52c.32,0,.58.26.58.58s-.26.58-.58.58-.58-.26-.58-.58.26-.58.58-.58ZM39.35,25.01c.24-.24.44-.47.59-.65.07-.06.13-.12.2-.19.14-.14.26-.28.34-.39.12.1.27.16.44.18-.02.14-.03.32-.03.52,0,.08,0,.16,0,.24-.03.24-.05.56-.05.92,0,.18,0,.35.01.51-.73-.04-1.38-.33-1.89-.79.12-.11.24-.22.37-.35ZM41.16,24.76c0-.09,0-.18,0-.28,0-.2-.01-.38-.03-.52.17-.02.32-.08.44-.18.09.11.2.25.34.39.06.06.12.11.17.16.15.19.37.43.62.68.13.13.25.25.37.35-.51.46-1.17.74-1.89.78,0-.16.01-.33.01-.51,0-.34-.02-.64-.04-.88ZM42.95,24.78c-.24-.24-.47-.44-.65-.59-.06-.07-.12-.13-.19-.2-.14-.14-.28-.26-.39-.34.1-.12.16-.27.18-.44.14.02.32.03.52.03.08,0,.16,0,.24,0,.24.03.56.05.92.05.18,0,.35,0,.51-.01-.04.73-.33,1.38-.79,1.89-.11-.12-.22-.24-.35-.37ZM43.58,22.94c-.34,0-.64.02-.88.04-.09,0-.18,0-.28,0-.2,0-.38.01-.52.03-.02-.17-.08-.32-.18-.44.11-.09.25-.2.39-.34.06-.06.11-.12.16-.17.19-.15.43-.37.68-.62.13-.13.25-.25.35-.37.46.51.74,1.17.78,1.89-.16,0-.33-.01-.51-.01ZM42.72,21.18c-.24.24-.44.47-.59.65-.07.06-.13.12-.2.19-.14.14-.26.28-.34.39-.12-.1-.27-.16-.44-.18.02-.14.03-.32.03-.52,0-.08,0-.16,0-.24.03-.24.05-.56.05-.92,0-.18,0-.35-.01-.51.73.04,1.38.33,1.89.79-.12.11-.24.22-.37.35ZM40.91,21.43c0,.09,0,.18,0,.28,0,.2.01.38.03.52-.17.02-.32.08-.44.18-.09-.11-.2-.25-.34-.39-.06-.06-.12-.11-.17-.16-.15-.19-.37-.43-.62-.68-.13-.13-.25-.25-.37-.35.51-.46,1.17-.74,1.89-.78,0,.16-.01.33-.01.51,0,.34.02.64.04.88ZM39.12,21.42c.24.24.47.44.65.59.06.07.12.13.19.2.14.14.28.26.39.34-.1.12-.16.27-.18.44-.14-.02-.32-.03-.52-.03-.08,0-.16,0-.24,0-.24-.03-.56-.05-.92-.05-.18,0-.35,0-.51.01.04-.73.33-1.38.79-1.89.11.12.22.24.35.37Z"/><path class="cls-1" d="M46,32.37c.14,0,.27,0,.39-.02.05.82.38,1.57.89,2.16-.1.07-.19.16-.29.26-.38.38-.6.77-.49.87s.49-.12.87-.49c.1-.1.19-.2.26-.29.59.51,1.33.84,2.16.89-.01.12-.02.25-.02.39,0,.53.12.97.27.97s.27-.43.27-.97c0-.14,0-.27-.02-.39.82-.05,1.57-.38,2.16-.89.07.1.16.19.26.29.38.38.77.6.87.49.1-.1-.12-.49-.49-.87-.1-.1-.2-.19-.29-.26.51-.59.84-1.33.89-2.16.12.01.25.02.39.02.53,0,.97-.12.97-.27s-.43-.27-.97-.27c-.14,0-.27,0-.39.02-.05-.82-.38-1.57-.89-2.16.1-.07.19-.16.29-.26.38-.38.6-.77.49-.87-.1-.1-.49.12-.87.49-.1.1-.19.2-.26.29-.59-.51-1.33-.84-2.16-.89.01-.12.02-.25.02-.39,0-.53-.12-.97-.27-.97s-.27.43-.27.97c0,.14,0,.27.02.39-.82.05-1.57.38-2.16.89-.07-.1-.16-.19-.26-.29-.38-.38-.77-.6-.87-.49-.1.1.12.49.49.87.1.1.2.19.29.26-.51.59-.84,1.33-.89,2.16-.12-.01-.25-.02-.39-.02-.53,0-.97.12-.97.27s.43.27.97.27ZM49.17,32.2c.02.17.08.32.18.44-.11.09-.25.2-.39.34-.06.06-.11.12-.16.17-.19.15-.43.37-.68.62-.13.13-.25.25-.35.37-.46-.51-.74-1.17-.78-1.89.16,0,.33.01.51.01.34,0,.64-.02.88-.04.09,0,.18,0,.28,0,.2,0,.38-.01.52-.03ZM50.04,31.52c.32,0,.58.26.58.58s-.26.58-.58.58-.58-.26-.58-.58.26-.58.58-.58ZM48.35,34.01c.24-.24.44-.47.59-.65.07-.06.13-.12.2-.19.14-.14.26-.28.34-.39.12.1.27.16.44.18-.02.14-.03.32-.03.52,0,.08,0,.16,0,.24-.03.24-.05.56-.05.92,0,.18,0,.35.01.51-.73-.04-1.38-.33-1.89-.79.12-.11.24-.22.37-.35ZM50.16,33.76c0-.09,0-.18,0-.28,0-.2-.01-.38-.03-.52.17-.02.32-.08.44-.18.09.11.2.25.34.39.06.06.12.11.17.16.15.19.37.43.62.68.13.13.25.25.37.35-.51.46-1.17.74-1.89.78,0-.16.01-.33.01-.51,0-.34-.02-.64-.04-.88ZM51.95,33.78c-.24-.24-.47-.44-.65-.59-.06-.07-.12-.13-.19-.2-.14-.14-.28-.26-.39-.34.1-.12.16-.27.18-.44.14.02.32.03.52.03.08,0,.16,0,.24,0,.24.03.56.05.92.05.18,0,.35,0,.51-.01-.04.73-.33,1.38-.79,1.89-.11-.12-.22-.24-.35-.37ZM52.58,31.94c-.34,0-.64.02-.88.04-.09,0-.18,0-.28,0-.2,0-.38.01-.52.03-.02-.17-.08-.32-.18-.44.11-.09.25-.2.39-.34.06-.06.11-.12.16-.17.19-.15.43-.37.68-.62.13-.13.25-.25.35-.37.46.51.74,1.17.78,1.89-.16,0-.33-.01-.51-.01ZM51.72,30.18c-.24.24-.44.47-.59.65-.07.06-.13.12-.2.19-.14.14-.26.28-.34.39-.12-.1-.27-.16-.44-.18.02-.14.03-.32.03-.52,0-.08,0-.16,0-.24.03-.24.05-.56.05-.92,0-.18,0-.35-.01-.51.73.04,1.38.33,1.89.79-.12.11-.24.22-.37.35ZM49.91,30.43c0,.09,0,.18,0,.28,0,.2.01.38.03.52-.17.02-.32.08-.44.18-.09-.11-.2-.25-.34-.39-.06-.06-.12-.11-.17-.16-.15-.19-.37-.43-.62-.68-.13-.13-.25-.25-.37-.35.51-.46,1.17-.74,1.89-.78,0,.16-.01.33-.01.51,0,.34.02.64.04.88ZM48.12,30.42c.24.24.47.44.65.59.06.07.12.13.19.2.14.14.28.26.39.34-.1.12-.16.27-.18.44-.14-.02-.32-.03-.52-.03-.08,0-.16,0-.24,0-.24-.03-.56-.05-.92-.05-.18,0-.35,0-.51.01.04-.73.33-1.38.79-1.89.11.12.22.24.35.37Z"/><path class="cls-1" d="M55,41.37c.14,0,.27,0,.39-.02.05.82.38,1.57.89,2.16-.1.07-.19.16-.29.26-.38.38-.6.77-.49.87s.49-.12.87-.49c.1-.1.19-.2.26-.29.59.51,1.33.84,2.16.89-.01.12-.02.25-.02.39,0,.53.12.97.27.97s.27-.43.27-.97c0-.14,0-.27-.02-.39.82-.05,1.57-.38,2.16-.89.07.1.16.19.26.29.38.38.77.6.87.49.1-.1-.12-.49-.49-.87-.1-.1-.2-.19-.29-.26.51-.59.84-1.33.89-2.16.12.01.25.02.39.02.53,0,.97-.12.97-.27s-.43-.27-.97-.27c-.14,0-.27,0-.39.02-.05-.82-.38-1.57-.89-2.16.1-.07.19-.16.29-.26.38-.38.6-.77.49-.87-.1-.1-.49.12-.87.49-.1.1-.19.2-.26.29-.59-.51-1.33-.84-2.16-.89.01-.12.02-.25.02-.39,0-.53-.12-.97-.27-.97s-.27.43-.27.97c0,.14,0,.27.02.39-.82.05-1.57.38-2.16.89-.07-.1-.16-.19-.26-.29-.38-.38-.77-.6-.87-.49-.1.1.12.49.49.87.1.1.2.19.29.26-.51.59-.84,1.33-.89,2.16-.12-.01-.25-.02-.39-.02-.53,0-.97.12-.97.27s.43.27.97.27ZM58.17,41.2c.02.17.08.32.18.44-.11.09-.25.2-.39.34-.06.06-.11.12-.16.17-.19.15-.43.37-.68.62-.13.13-.25.25-.35.37-.46-.51-.74-1.17-.78-1.89.16,0,.33.01.51.01.34,0,.64-.02.88-.04.09,0,.18,0,.28,0,.2,0,.38-.01.52-.03ZM59.04,40.52c.32,0,.58.26.58.58s-.26.58-.58.58-.58-.26-.58-.58.26-.58.58-.58ZM57.35,43.01c.24-.24.44-.47.59-.65.07-.06.13-.12.2-.19.14-.14.26-.28.34-.39.12.1.27.16.44.18-.02.14-.03.32-.03.52,0,.08,0,.16,0,.24-.03.24-.05.56-.05.92,0,.18,0,.35.01.51-.73-.04-1.38-.33-1.89-.79.12-.11.24-.22.37-.35ZM59.16,42.76c0-.09,0-.18,0-.28,0-.2-.01-.38-.03-.52.17-.02.32-.08.44-.18.09.11.2.25.34.39.06.06.12.11.17.16.15.19.37.43.62.68.13.13.25.25.37.35-.51.46-1.17.74-1.89.78,0-.16.01-.33.01-.51,0-.34-.02-.64-.04-.88ZM60.95,42.78c-.24-.24-.47-.44-.65-.59-.06-.07-.12-.13-.19-.2-.14-.14-.28-.26-.39-.34.1-.12.16-.27.18-.44.14.02.32.03.52.03.08,0,.16,0,.24,0,.24.03.56.05.92.05.18,0,.35,0,.51-.01-.04.73-.33,1.38-.79,1.89-.11-.12-.22-.24-.35-.37ZM61.58,40.94c-.34,0-.64.02-.88.04-.09,0-.18,0-.28,0-.2,0-.38.01-.52.03-.02-.17-.08-.32-.18-.44.11-.09.25-.2.39-.34.06-.06.11-.12.16-.17.19-.15.43-.37.68-.62.13-.13.25-.25.35-.37.46.51.74,1.17.78,1.89-.16,0-.33-.01-.51-.01ZM60.72,39.18c-.24.24-.44.47-.59.65-.07.06-.13.12-.2.19-.14.14-.26.28-.34.39-.12-.1-.27-.16-.44-.18.02-.14.03-.32.03-.52,0-.08,0-.16,0-.24.03-.24.05-.56.05-.92,0-.18,0-.35-.01-.51.73.04,1.38.33,1.89.79-.12.11-.24.22-.37.35ZM58.91,39.43c0,.09,0,.18,0,.28,0,.2.01.38.03.52-.17.02-.32.08-.44.18-.09-.11-.2-.25-.34-.39-.06-.06-.12-.11-.17-.16-.15-.19-.37-.43-.62-.68-.13-.13-.25-.25-.37-.35.51-.46,1.17-.74,1.89-.78,0,.16-.01.33-.01.51,0,.34.02.64.04.88ZM57.12,39.42c.24.24.47.44.65.59.06.07.12.13.19.2.14.14.28.26.39.34-.1.12-.16.27-.18.44-.14-.02-.32-.03-.52-.03-.08,0-.16,0-.24,0-.24-.03-.56-.05-.92-.05-.18,0-.35,0-.51.01.04-.73.33-1.38.79-1.89.11.12.22.24.35.37Z"/><path class="cls-1" d="M64,50.37c.14,0,.27,0,.39-.02.05.82.38,1.57.89,2.16-.1.07-.19.16-.29.26-.38.38-.6.77-.49.87s.49-.12.87-.49c.1-.1.19-.2.26-.29.59.51,1.33.84,2.16.89-.01.12-.02.25-.02.39,0,.53.12.97.27.97s.27-.43.27-.97c0-.14,0-.27-.02-.39.82-.05,1.57-.38,2.16-.89.07.1.16.19.26.29.38.38.77.6.87.49.1-.1-.12-.49-.49-.87-.1-.1-.2-.19-.29-.26.51-.59.84-1.33.89-2.16.12.01.25.02.39.02.53,0,.97-.12.97-.27s-.43-.27-.97-.27c-.14,0-.27,0-.39.02-.05-.82-.38-1.57-.89-2.16.1-.07.19-.16.29-.26.38-.38.6-.77.49-.87-.1-.1-.49.12-.87.49-.1.1-.19.2-.26.29-.59-.51-1.33-.84-2.16-.89.01-.12.02-.25.02-.39,0-.53-.12-.97-.27-.97s-.27.43-.27.97c0,.14,0,.27.02.39-.82.05-1.57.38-2.16.89-.07-.1-.16-.19-.26-.29-.38-.38-.77-.6-.87-.49-.1.1.12.49.49.87.1.1.2.19.29.26-.51.59-.84,1.33-.89,2.16-.12-.01-.25-.02-.39-.02-.53,0-.97.12-.97.27s.43.27.97.27ZM67.17,50.2c.02.17.08.32.18.44-.11.09-.25.2-.39.34-.06.06-.11.12-.16.17-.19.15-.43.37-.68.62-.13.13-.25.25-.35.37-.46-.51-.74-1.17-.78-1.89.16,0,.33.01.51.01.34,0,.64-.02.88-.04.09,0,.18,0,.28,0,.2,0,.38-.01.52-.03ZM68.04,49.52c.32,0,.58.26.58.58s-.26.58-.58.58-.58-.26-.58-.58.26-.58.58-.58ZM66.35,52.01c.24-.24.44-.47.59-.65.07-.06.13-.12.2-.19.14-.14.26-.28.34-.39.12.1.27.16.44.18-.02.14-.03.32-.03.52,0,.08,0,.16,0,.24-.03.24-.05.56-.05.92,0,.18,0,.35.01.51-.73-.04-1.38-.33-1.89-.79.12-.11.24-.22.37-.35ZM68.16,51.76c0-.09,0-.18,0-.28,0-.2-.01-.38-.03-.52.17-.02.32-.08.44-.18.09.11.2.25.34.39.06.06.12.11.17.16.15.19.37.43.62.68.13.13.25.25.37.35-.51.46-1.17.74-1.89.78,0-.16.01-.33.01-.51,0-.34-.02-.64-.04-.88ZM69.95,51.78c-.24-.24-.47-.44-.65-.59-.06-.07-.12-.13-.19-.2-.14-.14-.28-.26-.39-.34.1-.12.16-.27.18-.44.14.02.32.03.52.03.08,0,.16,0,.24,0,.24.03.56.05.92.05.18,0,.35,0,.51-.01-.04.73-.33,1.38-.79,1.89-.11-.12-.22-.24-.35-.37ZM70.58,49.94c-.34,0-.64.02-.88.04-.09,0-.18,0-.28,0-.2,0-.38.01-.52.03-.02-.17-.08-.32-.18-.44.11-.09.25-.2.39-.34.06-.06.11-.12.16-.17.19-.15.43-.37.68-.62.13-.13.25-.25.35-.37.46.51.74,1.17.78,1.89-.16,0-.33-.01-.51-.01ZM69.72,48.18c-.24.24-.44.47-.59.65-.07.06-.13.12-.2.19-.14.14-.26.28-.34.39-.12-.1-.27-.16-.44-.18.02-.14.03-.32.03-.52,0-.08,0-.16,0-.24.03-.24.05-.56.05-.92,0-.18,0-.35-.01-.51.73.04,1.38.33,1.89.79-.12.11-.24.22-.37.35ZM67.91,48.43c0,.09,0,.18,0,.28,0,.2.01.38.03.52-.17.02-.32.08-.44.18-.09-.11-.2-.25-.34-.39-.06-.06-.12-.11-.17-.16-.15-.19-.37-.43-.62-.68-.13-.13-.25-.25-.37-.35.51-.46,1.17-.74,1.89-.78,0,.16-.01.33-.01.51,0,.34.02.64.04.88ZM66.12,48.42c.24.24.47.44.65.59.06.07.12.13.19.2.14.14.28.26.39.34-.1.12-.16.27-.18.44-.14-.02-.32-.03-.52-.03-.08,0-.16,0-.24,0-.24-.03-.56-.05-.92-.05-.18,0-.35,0-.51.01.04-.73.33-1.38.79-1.89.11.12.22.24.35.37Z"/><path class="cls-1" d="M36.87,5.27c.14,0,.27,0,.39-.02.05.82.38,1.57.89,2.16-.1.07-.19.16-.29.26-.38.38-.6.77-.49.87s.49-.12.87-.49c.1-.1.19-.2.26-.29.59.51,1.33.84,2.16.89-.01.12-.02.25-.02.39,0,.53.12.97.27.97s.27-.43.27-.97c0-.14,0-.27-.02-.39.82-.05,1.57-.38,2.16-.89.07.1.16.19.26.29.38.38.77.6.87.49.1-.1-.12-.49-.49-.87-.1-.1-.2-.19-.29-.26.51-.59.84-1.33.89-2.16.12.01.25.02.39.02.53,0,.97-.12.97-.27s-.43-.27-.97-.27c-.14,0-.27,0-.39.02-.05-.82-.38-1.57-.89-2.16.1-.07.19-.16.29-.26.38-.38.6-.77.49-.87-.1-.1-.49.12-.87.49-.1.1-.19.2-.26.29-.59-.51-1.33-.84-2.16-.89.01-.12.02-.25.02-.39C41.17.43,41.05,0,40.9,0s-.27.43-.27.97c0,.14,0,.27.02.39-.82.05-1.57.38-2.16.89-.07-.1-.16-.19-.26-.29-.38-.38-.77-.6-.87-.49-.1.1.12.49.49.87.1.1.2.19.29.26-.51.59-.84,1.33-.89,2.16-.12-.01-.25-.02-.39-.02-.53,0-.97.12-.97.27s.43.27.97.27ZM40.04,5.1c.02.17.08.32.18.44-.11.09-.25.2-.39.34-.06.06-.11.12-.16.17-.19.15-.43.37-.68.62-.13.13-.25.25-.35.37-.46-.51-.74-1.17-.78-1.89.16,0,.33.01.51.01.34,0,.64-.02.88-.04.09,0,.18,0,.28,0,.2,0,.38-.01.52-.03ZM40.9,4.42c.32,0,.58.26.58.58s-.26.58-.58.58-.58-.26-.58-.58.26-.58.58-.58ZM39.22,6.91c.24-.24.44-.47.59-.65.07-.06.13-.12.2-.19.14-.14.26-.28.34-.39.12.1.27.16.44.18-.02.14-.03.32-.03.52,0,.08,0,.16,0,.24-.03.24-.05.56-.05.92,0,.18,0,.35.01.51-.73-.04-1.38-.33-1.89-.79.12-.11.24-.22.37-.35ZM41.03,6.67c0-.09,0-.18,0-.28,0-.2-.01-.38-.03-.52.17-.02.32-.08.44-.18.09.11.2.25.34.39.06.06.12.11.17.16.15.19.37.43.62.68.13.13.25.25.37.35-.51.46-1.17.74-1.89.78,0-.16.01-.33.01-.51,0-.34-.02-.64-.04-.88ZM42.82,6.68c-.24-.24-.47-.44-.65-.59-.06-.07-.12-.13-.19-.2-.14-.14-.28-.26-.39-.34.1-.12.16-.27.18-.44.14.02.32.03.52.03.08,0,.16,0,.24,0,.24.03.56.05.92.05.18,0,.35,0,.51-.01-.04.73-.33,1.38-.79,1.89-.11-.12-.22-.24-.35-.37ZM43.45,4.84c-.34,0-.64.02-.88.04-.09,0-.18,0-.28,0-.2,0-.38.01-.52.03-.02-.17-.08-.32-.18-.44.11-.09.25-.2.39-.34.06-.06.11-.12.16-.17.19-.15.43-.37.68-.62.13-.13.25-.25.35-.37.46.51.74,1.17.78,1.89-.16,0-.33-.01-.51-.01ZM42.59,3.09c-.24.24-.44.47-.59.65-.07.06-.13.12-.2.19-.14.14-.26.28-.34.39-.12-.1-.27-.16-.44-.18.02-.14.03-.32.03-.52,0-.08,0-.16,0-.24.03-.24.05-.56.05-.92,0-.18,0-.35-.01-.51.73.04,1.38.33,1.89.79-.12.11-.24.22-.37.35ZM40.78,3.33c0,.09,0,.18,0,.28,0,.2.01.38.03.52-.17.02-.32.08-.44.18-.09-.11-.2-.25-.34-.39-.06-.06-.12-.11-.17-.16-.15-.19-.37-.43-.62-.68-.13-.13-.25-.25-.37-.35.51-.46,1.17-.74,1.89-.78,0,.16-.01.33-.01.51,0,.34.02.64.04.88ZM38.99,3.32c.24.24.47.44.65.59.06.07.12.13.19.2.14.14.28.26.39.34-.1.12-.16.27-.18.44-.14-.02-.32-.03-.52-.03-.08,0-.16,0-.24,0-.24-.03-.56-.05-.92-.05-.18,0-.35,0-.51.01.04-.73.33-1.38.79-1.89.11.12.22.24.35.37Z"/><path class="cls-1" d="M45.87,14.27c.14,0,.27,0,.39-.02.05.82.38,1.57.89,2.16-.1.07-.19.16-.29.26-.38.38-.6.77-.49.87s.49-.12.87-.49c.1-.1.19-.2.26-.29.59.51,1.33.84,2.16.89-.01.12-.02.25-.02.39,0,.53.12.97.27.97s.27-.43.27-.97c0-.14,0-.27-.02-.39.82-.05,1.57-.38,2.16-.89.07.1.16.19.26.29.38.38.77.6.87.49.1-.1-.12-.49-.49-.87-.1-.1-.2-.19-.29-.26.51-.59.84-1.33.89-2.16.12.01.25.02.39.02.53,0,.97-.12.97-.27s-.43-.27-.97-.27c-.14,0-.27,0-.39.02-.05-.82-.38-1.57-.89-2.16.1-.07.19-.16.29-.26.38-.38.6-.77.49-.87-.1-.1-.49.12-.87.49-.1.1-.19.2-.26.29-.59-.51-1.33-.84-2.16-.89.01-.12.02-.25.02-.39,0-.53-.12-.97-.27-.97s-.27.43-.27.97c0,.14,0,.27.02.39-.82.05-1.57.38-2.16.89-.07-.1-.16-.19-.26-.29-.38-.38-.77-.6-.87-.49-.1.1.12.49.49.87.1.1.2.19.29.26-.51.59-.84,1.33-.89,2.16-.12-.01-.25-.02-.39-.02-.53,0-.97.12-.97.27s.43.27.97.27ZM49.04,14.1c.02.17.08.32.18.44-.11.09-.25.2-.39.34-.06.06-.11.12-.16.17-.19.15-.43.37-.68.62-.13.13-.25.25-.35.37-.46-.51-.74-1.17-.78-1.89.16,0,.33.01.51.01.34,0,.64-.02.88-.04.09,0,.18,0,.28,0,.2,0,.38-.01.52-.03ZM49.9,13.42c.32,0,.58.26.58.58s-.26.58-.58.58-.58-.26-.58-.58.26-.58.58-.58ZM48.22,15.91c.24-.24.44-.47.59-.65.07-.06.13-.12.2-.19.14-.14.26-.28.34-.39.12.1.27.16.44.18-.02.14-.03.32-.03.52,0,.08,0,.16,0,.24-.03.24-.05.56-.05.92,0,.18,0,.35.01.51-.73-.04-1.38-.33-1.89-.79.12-.11.24-.22.37-.35ZM50.03,15.67c0-.09,0-.18,0-.28,0-.2-.01-.38-.03-.52.17-.02.32-.08.44-.18.09.11.2.25.34.39.06.06.12.11.17.16.15.19.37.43.62.68.13.13.25.25.37.35-.51.46-1.17.74-1.89.78,0-.16.01-.33.01-.51,0-.34-.02-.64-.04-.88ZM51.82,15.68c-.24-.24-.47-.44-.65-.59-.06-.07-.12-.13-.19-.2-.14-.14-.28-.26-.39-.34.1-.12.16-.27.18-.44.14.02.32.03.52.03.08,0,.16,0,.24,0,.24.03.56.05.92.05.18,0,.35,0,.51-.01-.04.73-.33,1.38-.79,1.89-.11-.12-.22-.24-.35-.37ZM52.45,13.84c-.34,0-.64.02-.88.04-.09,0-.18,0-.28,0-.2,0-.38.01-.52.03-.02-.17-.08-.32-.18-.44.11-.09.25-.2.39-.34.06-.06.11-.12.16-.17.19-.15.43-.37.68-.62.13-.13.25-.25.35-.37.46.51.74,1.17.78,1.89-.16,0-.33-.01-.51-.01ZM51.59,12.09c-.24.24-.44.47-.59.65-.07.06-.13.12-.2.19-.14.14-.26.28-.34.39-.12-.1-.27-.16-.44-.18.02-.14.03-.32.03-.52,0-.08,0-.16,0-.24.03-.24.05-.56.05-.92,0-.18,0-.35-.01-.51.73.04,1.38.33,1.89.79-.12.11-.24.22-.37.35ZM49.78,12.33c0,.09,0,.18,0,.28,0,.2.01.38.03.52-.17.02-.32.08-.44.18-.09-.11-.2-.25-.34-.39-.06-.06-.12-.11-.17-.16-.15-.19-.37-.43-.62-.68-.13-.13-.25-.25-.37-.35.51-.46,1.17-.74,1.89-.78,0,.16-.01.33-.01.51,0,.34.02.64.04.88ZM47.99,12.32c.24.24.47.44.65.59.06.07.12.13.19.2.14.14.28.26.39.34-.1.12-.16.27-.18.44-.14-.02-.32-.03-.52-.03-.08,0-.16,0-.24,0-.24-.03-.56-.05-.92-.05-.18,0-.35,0-.51.01.04-.73.33-1.38.79-1.89.11.12.22.24.35.37Z"/><path class="cls-1" d="M54.87,23.27c.14,0,.27,0,.39-.02.05.82.38,1.57.89,2.16-.1.07-.19.16-.29.26-.38.38-.6.77-.49.87s.49-.12.87-.49c.1-.1.19-.2.26-.29.59.51,1.33.84,2.16.89-.01.12-.02.25-.02.39,0,.53.12.97.27.97s.27-.43.27-.97c0-.14,0-.27-.02-.39.82-.05,1.57-.38,2.16-.89.07.1.16.19.26.29.38.38.77.6.87.49.1-.1-.12-.49-.49-.87-.1-.1-.2-.19-.29-.26.51-.59.84-1.33.89-2.16.12.01.25.02.39.02.53,0,.97-.12.97-.27s-.43-.27-.97-.27c-.14,0-.27,0-.39.02-.05-.82-.38-1.57-.89-2.16.1-.07.19-.16.29-.26.38-.38.6-.77.49-.87-.1-.1-.49.12-.87.49-.1.1-.19.2-.26.29-.59-.51-1.33-.84-2.16-.89.01-.12.02-.25.02-.39,0-.53-.12-.97-.27-.97s-.27.43-.27.97c0,.14,0,.27.02.39-.82.05-1.57.38-2.16.89-.07-.1-.16-.19-.26-.29-.38-.38-.77-.6-.87-.49-.1.1.12.49.49.87.1.1.2.19.29.26-.51.59-.84,1.33-.89,2.16-.12-.01-.25-.02-.39-.02-.53,0-.97.12-.97.27s.43.27.97.27ZM58.04,23.1c.02.17.08.32.18.44-.11.09-.25.2-.39.34-.06.06-.11.12-.16.17-.19.15-.43.37-.68.62-.13.13-.25.25-.35.37-.46-.51-.74-1.17-.78-1.89.16,0,.33.01.51.01.34,0,.64-.02.88-.04.09,0,.18,0,.28,0,.2,0,.38-.01.52-.03ZM58.9,22.42c.32,0,.58.26.58.58s-.26.58-.58.58-.58-.26-.58-.58.26-.58.58-.58ZM57.22,24.91c.24-.24.44-.47.59-.65.07-.06.13-.12.2-.19.14-.14.26-.28.34-.39.12.1.27.16.44.18-.02.14-.03.32-.03.52,0,.08,0,.16,0,.24-.03.24-.05.56-.05.92,0,.18,0,.35.01.51-.73-.04-1.38-.33-1.89-.79.12-.11.24-.22.37-.35ZM59.03,24.67c0-.09,0-.18,0-.28,0-.2-.01-.38-.03-.52.17-.02.32-.08.44-.18.09.11.2.25.34.39.06.06.12.11.17.16.15.19.37.43.62.68.13.13.25.25.37.35-.51.46-1.17.74-1.89.78,0-.16.01-.33.01-.51,0-.34-.02-.64-.04-.88ZM60.82,24.68c-.24-.24-.47-.44-.65-.59-.06-.07-.12-.13-.19-.2-.14-.14-.28-.26-.39-.34.1-.12.16-.27.18-.44.14.02.32.03.52.03.08,0,.16,0,.24,0,.24.03.56.05.92.05.18,0,.35,0,.51-.01-.04.73-.33,1.38-.79,1.89-.11-.12-.22-.24-.35-.37ZM61.45,22.84c-.34,0-.64.02-.88.04-.09,0-.18,0-.28,0-.2,0-.38.01-.52.03-.02-.17-.08-.32-.18-.44.11-.09.25-.2.39-.34.06-.06.11-.12.16-.17.19-.15.43-.37.68-.62.13-.13.25-.25.35-.37.46.51.74,1.17.78,1.89-.16,0-.33-.01-.51-.01ZM60.59,21.09c-.24.24-.44.47-.59.65-.07.06-.13.12-.2.19-.14.14-.26.28-.34.39-.12-.1-.27-.16-.44-.18.02-.14.03-.32.03-.52,0-.08,0-.16,0-.24.03-.24.05-.56.05-.92,0-.18,0-.35-.01-.51.73.04,1.38.33,1.89.79-.12.11-.24.22-.37.35ZM58.78,21.33c0,.09,0,.18,0,.28,0,.2.01.38.03.52-.17.02-.32.08-.44.18-.09-.11-.2-.25-.34-.39-.06-.06-.12-.11-.17-.16-.15-.19-.37-.43-.62-.68-.13-.13-.25-.25-.37-.35.51-.46,1.17-.74,1.89-.78,0,.16-.01.33-.01.51,0,.34.02.64.04.88ZM56.99,21.32c.24.24.47.44.65.59.06.07.12.13.19.2.14.14.28.26.39.34-.1.12-.16.27-.18.44-.14-.02-.32-.03-.52-.03-.08,0-.16,0-.24,0-.24-.03-.56-.05-.92-.05-.18,0-.35,0-.51.01.04-.73.33-1.38.79-1.89.11.12.22.24.35.37Z"/><path class="cls-1" d="M63.87,32.27c.14,0,.27,0,.39-.02.05.82.38,1.57.89,2.16-.1.07-.19.16-.29.26-.38.38-.6.77-.49.87s.49-.12.87-.49c.1-.1.19-.2.26-.29.59.51,1.33.84,2.16.89-.01.12-.02.25-.02.39,0,.53.12.97.27.97s.27-.43.27-.97c0-.14,0-.27-.02-.39.82-.05,1.57-.38,2.16-.89.07.1.16.19.26.29.38.38.77.6.87.49.1-.1-.12-.49-.49-.87-.1-.1-.2-.19-.29-.26.51-.59.84-1.33.89-2.16.12.01.25.02.39.02.53,0,.97-.12.97-.27s-.43-.27-.97-.27c-.14,0-.27,0-.39.02-.05-.82-.38-1.57-.89-2.16.1-.07.19-.16.29-.26.38-.38.6-.77.49-.87-.1-.1-.49.12-.87.49-.1.1-.19.2-.26.29-.59-.51-1.33-.84-2.16-.89.01-.12.02-.25.02-.39,0-.53-.12-.97-.27-.97s-.27.43-.27.97c0,.14,0,.27.02.39-.82.05-1.57.38-2.16.89-.07-.1-.16-.19-.26-.29-.38-.38-.77-.6-.87-.49-.1.1.12.49.49.87.1.1.2.19.29.26-.51.59-.84,1.33-.89,2.16-.12-.01-.25-.02-.39-.02-.53,0-.97.12-.97.27s.43.27.97.27ZM67.04,32.1c.02.17.08.32.18.44-.11.09-.25.2-.39.34-.06.06-.11.12-.16.17-.19.15-.43.37-.68.62-.13.13-.25.25-.35.37-.46-.51-.74-1.17-.78-1.89.16,0,.33.01.51.01.34,0,.64-.02.88-.04.09,0,.18,0,.28,0,.2,0,.38-.01.52-.03ZM67.9,31.42c.32,0,.58.26.58.58s-.26.58-.58.58-.58-.26-.58-.58.26-.58.58-.58ZM66.22,33.91c.24-.24.44-.47.59-.65.07-.06.13-.12.2-.19.14-.14.26-.28.34-.39.12.1.27.16.44.18-.02.14-.03.32-.03.52,0,.08,0,.16,0,.24-.03.24-.05.56-.05.92,0,.18,0,.35.01.51-.73-.04-1.38-.33-1.89-.79.12-.11.24-.22.37-.35ZM68.03,33.67c0-.09,0-.18,0-.28,0-.2-.01-.38-.03-.52.17-.02.32-.08.44-.18.09.11.2.25.34.39.06.06.12.11.17.16.15.19.37.43.62.68.13.13.25.25.37.35-.51.46-1.17.74-1.89.78,0-.16.01-.33.01-.51,0-.34-.02-.64-.04-.88ZM69.82,33.68c-.24-.24-.47-.44-.65-.59-.06-.07-.12-.13-.19-.2-.14-.14-.28-.26-.39-.34.1-.12.16-.27.18-.44.14.02.32.03.52.03.08,0,.16,0,.24,0,.24.03.56.05.92.05.18,0,.35,0,.51-.01-.04.73-.33,1.38-.79,1.89-.11-.12-.22-.24-.35-.37ZM70.45,31.84c-.34,0-.64.02-.88.04-.09,0-.18,0-.28,0-.2,0-.38.01-.52.03-.02-.17-.08-.32-.18-.44.11-.09.25-.2.39-.34.06-.06.11-.12.16-.17.19-.15.43-.37.68-.62.13-.13.25-.25.35-.37.46.51.74,1.17.78,1.89-.16,0-.33-.01-.51-.01ZM69.59,30.09c-.24.24-.44.47-.59.65-.07.06-.13.12-.2.19-.14.14-.26.28-.34.39-.12-.1-.27-.16-.44-.18.02-.14.03-.32.03-.52,0-.08,0-.16,0-.24.03-.24.05-.56.05-.92,0-.18,0-.35-.01-.51.73.04,1.38.33,1.89.79-.12.11-.24.22-.37.35ZM67.78,30.33c0,.09,0,.18,0,.28,0,.2.01.38.03.52-.17.02-.32.08-.44.18-.09-.11-.2-.25-.34-.39-.06-.06-.12-.11-.17-.16-.15-.19-.37-.43-.62-.68-.13-.13-.25-.25-.37-.35.51-.46,1.17-.74,1.89-.78,0,.16-.01.33-.01.51,0,.34.02.64.04.88ZM65.99,30.32c.24.24.47.44.65.59.06.07.12.13.19.2.14.14.28.26.39.34-.1.12-.16.27-.18.44-.14-.02-.32-.03-.52-.03-.08,0-.16,0-.24,0-.24-.03-.56-.05-.92-.05-.18,0-.35,0-.51.01.04-.73.33-1.38.79-1.89.11.12.22.24.35.37Z"/><path class="cls-1" d="M55.37,5.77c.14,0,.27,0,.39-.02.05.82.38,1.57.89,2.16-.1.07-.19.16-.29.26-.38.38-.6.77-.49.87s.49-.12.87-.49c.1-.1.19-.2.26-.29.59.51,1.33.84,2.16.89-.01.12-.02.25-.02.39,0,.53.12.97.27.97s.27-.43.27-.97c0-.14,0-.27-.02-.39.82-.05,1.57-.38,2.16-.89.07.1.16.19.26.29.38.38.77.6.87.49.1-.1-.12-.49-.49-.87-.1-.1-.2-.19-.29-.26.51-.59.84-1.33.89-2.16.12.01.25.02.39.02.53,0,.97-.12.97-.27s-.43-.27-.97-.27c-.14,0-.27,0-.39.02-.05-.82-.38-1.57-.89-2.16.1-.07.19-.16.29-.26.38-.38.6-.77.49-.87-.1-.1-.49.12-.87.49-.1.1-.19.2-.26.29-.59-.51-1.33-.84-2.16-.89.01-.12.02-.25.02-.39,0-.53-.12-.97-.27-.97s-.27.43-.27.97c0,.14,0,.27.02.39-.82.05-1.57.38-2.16.89-.07-.1-.16-.19-.26-.29-.38-.38-.77-.6-.87-.49-.1.1.12.49.49.87.1.1.2.19.29.26-.51.59-.84,1.33-.89,2.16-.12-.01-.25-.02-.39-.02-.53,0-.97.12-.97.27s.43.27.97.27ZM58.54,5.6c.02.17.08.32.18.44-.11.09-.25.2-.39.34-.06.06-.11.12-.16.17-.19.15-.43.37-.68.62-.13.13-.25.25-.35.37-.46-.51-.74-1.17-.78-1.89.16,0,.33.01.51.01.34,0,.64-.02.88-.04.09,0,.18,0,.28,0,.2,0,.38-.01.52-.03ZM59.4,4.92c.32,0,.58.26.58.58s-.26.58-.58.58-.58-.26-.58-.58.26-.58.58-.58ZM57.72,7.41c.24-.24.44-.47.59-.65.07-.06.13-.12.2-.19.14-.14.26-.28.34-.39.12.1.27.16.44.18-.02.14-.03.32-.03.52,0,.08,0,.16,0,.24-.03.24-.05.56-.05.92,0,.18,0,.35.01.51-.73-.04-1.38-.33-1.89-.79.12-.11.24-.22.37-.35ZM59.53,7.17c0-.09,0-.18,0-.28,0-.2-.01-.38-.03-.52.17-.02.32-.08.44-.18.09.11.2.25.34.39.06.06.12.11.17.16.15.19.37.43.62.68.13.13.25.25.37.35-.51.46-1.17.74-1.89.78,0-.16.01-.33.01-.51,0-.34-.02-.64-.04-.88ZM61.32,7.18c-.24-.24-.47-.44-.65-.59-.06-.07-.12-.13-.19-.2-.14-.14-.28-.26-.39-.34.1-.12.16-.27.18-.44.14.02.32.03.52.03.08,0,.16,0,.24,0,.24.03.56.05.92.05.18,0,.35,0,.51-.01-.04.73-.33,1.38-.79,1.89-.11-.12-.22-.24-.35-.37ZM61.95,5.34c-.34,0-.64.02-.88.04-.09,0-.18,0-.28,0-.2,0-.38.01-.52.03-.02-.17-.08-.32-.18-.44.11-.09.25-.2.39-.34.06-.06.11-.12.16-.17.19-.15.43-.37.68-.62.13-.13.25-.25.35-.37.46.51.74,1.17.78,1.89-.16,0-.33-.01-.51-.01ZM61.09,3.59c-.24.24-.44.47-.59.65-.07.06-.13.12-.2.19-.14.14-.26.28-.34.39-.12-.1-.27-.16-.44-.18.02-.14.03-.32.03-.52,0-.08,0-.16,0-.24.03-.24.05-.56.05-.92,0-.18,0-.35-.01-.51.73.04,1.38.33,1.89.79-.12.11-.24.22-.37.35ZM59.28,3.83c0,.09,0,.18,0,.28,0,.2.01.38.03.52-.17.02-.32.08-.44.18-.09-.11-.2-.25-.34-.39-.06-.06-.12-.11-.17-.16-.15-.19-.37-.43-.62-.68-.13-.13-.25-.25-.37-.35.51-.46,1.17-.74,1.89-.78,0,.16-.01.33-.01.51,0,.34.02.64.04.88ZM57.49,3.82c.24.24.47.44.65.59.06.07.12.13.19.2.14.14.28.26.39.34-.1.12-.16.27-.18.44-.14-.02-.32-.03-.52-.03-.08,0-.16,0-.24,0-.24-.03-.56-.05-.92-.05-.18,0-.35,0-.51.01.04-.73.33-1.38.79-1.89.11.12.22.24.35.37Z"/><path class="cls-1" d="M64.37,14.77c.14,0,.27,0,.39-.02.05.82.38,1.57.89,2.16-.1.07-.19.16-.29.26-.38.38-.6.77-.49.87s.49-.12.87-.49c.1-.1.19-.2.26-.29.59.51,1.33.84,2.16.89-.01.12-.02.25-.02.39,0,.53.12.97.27.97s.27-.43.27-.97c0-.14,0-.27-.02-.39.82-.05,1.57-.38,2.16-.89.07.1.16.19.26.29.38.38.77.6.87.49.1-.1-.12-.49-.49-.87-.1-.1-.2-.19-.29-.26.51-.59.84-1.33.89-2.16.12.01.25.02.39.02.53,0,.97-.12.97-.27s-.43-.27-.97-.27c-.14,0-.27,0-.39.02-.05-.82-.38-1.57-.89-2.16.1-.07.19-.16.29-.26.38-.38.6-.77.49-.87-.1-.1-.49.12-.87.49-.1.1-.19.2-.26.29-.59-.51-1.33-.84-2.16-.89.01-.12.02-.25.02-.39,0-.53-.12-.97-.27-.97s-.27.43-.27.97c0,.14,0,.27.02.39-.82.05-1.57.38-2.16.89-.07-.1-.16-.19-.26-.29-.38-.38-.77-.6-.87-.49-.1.1.12.49.49.87.1.1.2.19.29.26-.51.59-.84,1.33-.89,2.16-.12-.01-.25-.02-.39-.02-.53,0-.97.12-.97.27s.43.27.97.27ZM67.54,14.6c.02.17.08.32.18.44-.11.09-.25.2-.39.34-.06.06-.11.12-.16.17-.19.15-.43.37-.68.62-.13.13-.25.25-.35.37-.46-.51-.74-1.17-.78-1.89.16,0,.33.01.51.01.34,0,.64-.02.88-.04.09,0,.18,0,.28,0,.2,0,.38-.01.52-.03ZM68.4,13.92c.32,0,.58.26.58.58s-.26.58-.58.58-.58-.26-.58-.58.26-.58.58-.58ZM66.72,16.41c.24-.24.44-.47.59-.65.07-.06.13-.12.2-.19.14-.14.26-.28.34-.39.12.1.27.16.44.18-.02.14-.03.32-.03.52,0,.08,0,.16,0,.24-.03.24-.05.56-.05.92,0,.18,0,.35.01.51-.73-.04-1.38-.33-1.89-.79.12-.11.24-.22.37-.35ZM68.53,16.17c0-.09,0-.18,0-.28,0-.2-.01-.38-.03-.52.17-.02.32-.08.44-.18.09.11.2.25.34.39.06.06.12.11.17.16.15.19.37.43.62.68.13.13.25.25.37.35-.51.46-1.17.74-1.89.78,0-.16.01-.33.01-.51,0-.34-.02-.64-.04-.88ZM70.32,16.18c-.24-.24-.47-.44-.65-.59-.06-.07-.12-.13-.19-.2-.14-.14-.28-.26-.39-.34.1-.12.16-.27.18-.44.14.02.32.03.52.03.08,0,.16,0,.24,0,.24.03.56.05.92.05.18,0,.35,0,.51-.01-.04.73-.33,1.38-.79,1.89-.11-.12-.22-.24-.35-.37ZM70.95,14.34c-.34,0-.64.02-.88.04-.09,0-.18,0-.28,0-.2,0-.38.01-.52.03-.02-.17-.08-.32-.18-.44.11-.09.25-.2.39-.34.06-.06.11-.12.16-.17.19-.15.43-.37.68-.62.13-.13.25-.25.35-.37.46.51.74,1.17.78,1.89-.16,0-.33-.01-.51-.01ZM70.09,12.59c-.24.24-.44.47-.59.65-.07.06-.13.12-.2.19-.14.14-.26.28-.34.39-.12-.1-.27-.16-.44-.18.02-.14.03-.32.03-.52,0-.08,0-.16,0-.24.03-.24.05-.56.05-.92,0-.18,0-.35-.01-.51.73.04,1.38.33,1.89.79-.12.11-.24.22-.37.35ZM68.28,12.83c0,.09,0,.18,0,.28,0,.2.01.38.03.52-.17.02-.32.08-.44.18-.09-.11-.2-.25-.34-.39-.06-.06-.12-.11-.17-.16-.15-.19-.37-.43-.62-.68-.13-.13-.25-.25-.37-.35.51-.46,1.17-.74,1.89-.78,0,.16-.01.33-.01.51,0,.34.02.64.04.88ZM66.49,12.82c.24.24.47.44.65.59.06.07.12.13.19.2.14.14.28.26.39.34-.1.12-.16.27-.18.44-.14-.02-.32-.03-.52-.03-.08,0-.16,0-.24,0-.24-.03-.56-.05-.92-.05-.18,0-.35,0-.51.01.04-.73.33-1.38.79-1.89.11.12.22.24.35.37Z"/><path class="cls-1" d="M1.37,23.77c.14,0,.27,0,.39-.02.05.82.38,1.57.89,2.16-.1.07-.19.16-.29.26-.38.38-.6.77-.49.87s.49-.12.87-.49c.1-.1.19-.2.26-.29.59.51,1.33.84,2.16.89-.01.12-.02.25-.02.39,0,.53.12.97.27.97s.27-.43.27-.97c0-.14,0-.27-.02-.39.82-.05,1.57-.38,2.16-.89.07.1.16.19.26.29.38.38.77.6.87.49.1-.1-.12-.49-.49-.87-.1-.1-.2-.19-.29-.26.51-.59.84-1.33.89-2.16.12.01.25.02.39.02.53,0,.97-.12.97-.27s-.43-.27-.97-.27c-.14,0-.27,0-.39.02-.05-.82-.38-1.57-.89-2.16.1-.07.19-.16.29-.26.38-.38.6-.77.49-.87-.1-.1-.49.12-.87.49-.1.1-.19.2-.26.29-.59-.51-1.33-.84-2.16-.89.01-.12.02-.25.02-.39,0-.53-.12-.97-.27-.97s-.27.43-.27.97c0,.14,0,.27.02.39-.82.05-1.57.38-2.16.89-.07-.1-.16-.19-.26-.29-.38-.38-.77-.6-.87-.49-.1.1.12.49.49.87.1.1.2.19.29.26-.51.59-.84,1.33-.89,2.16-.12-.01-.25-.02-.39-.02-.53,0-.97.12-.97.27s.43.27.97.27ZM4.54,23.6c.02.17.08.32.18.44-.11.09-.25.2-.39.34-.06.06-.11.12-.16.17-.19.15-.43.37-.68.62-.13.13-.25.25-.35.37-.46-.51-.74-1.17-.78-1.89.16,0,.33.01.51.01.34,0,.64-.02.88-.04.09,0,.18,0,.28,0,.2,0,.38-.01.52-.03ZM5.4,22.92c.32,0,.58.26.58.58s-.26.58-.58.58-.58-.26-.58-.58.26-.58.58-.58ZM3.72,25.41c.24-.24.44-.47.59-.65.07-.06.13-.12.2-.19.14-.14.26-.28.34-.39.12.1.27.16.44.18-.02.14-.03.32-.03.52,0,.08,0,.16,0,.24-.03.24-.05.56-.05.92,0,.18,0,.35.01.51-.73-.04-1.38-.33-1.89-.79.12-.11.24-.22.37-.35ZM5.53,25.17c0-.09,0-.18,0-.28,0-.2-.01-.38-.03-.52.17-.02.32-.08.44-.18.09.11.2.25.34.39.06.06.12.11.17.16.15.19.37.43.62.68.13.13.25.25.37.35-.51.46-1.17.74-1.89.78,0-.16.01-.33.01-.51,0-.34-.02-.64-.04-.88ZM7.32,25.18c-.24-.24-.47-.44-.65-.59-.06-.07-.12-.13-.19-.2-.14-.14-.28-.26-.39-.34.1-.12.16-.27.18-.44.14.02.32.03.52.03.08,0,.16,0,.24,0,.24.03.56.05.92.05.18,0,.35,0,.51-.01-.04.73-.33,1.38-.79,1.89-.11-.12-.22-.24-.35-.37ZM7.95,23.34c-.34,0-.64.02-.88.04-.09,0-.18,0-.28,0-.2,0-.38.01-.52.03-.02-.17-.08-.32-.18-.44.11-.09.25-.2.39-.34.06-.06.11-.12.16-.17.19-.15.43-.37.68-.62.13-.13.25-.25.35-.37.46.51.74,1.17.78,1.89-.16,0-.33-.01-.51-.01ZM7.09,21.59c-.24.24-.44.47-.59.65-.07.06-.13.12-.2.19-.14.14-.26.28-.34.39-.12-.1-.27-.16-.44-.18.02-.14.03-.32.03-.52,0-.08,0-.16,0-.24.03-.24.05-.56.05-.92,0-.18,0-.35-.01-.51.73.04,1.38.33,1.89.79-.12.11-.24.22-.37.35ZM5.28,21.83c0,.09,0,.18,0,.28,0,.2.01.38.03.52-.17.02-.32.08-.44.18-.09-.11-.2-.25-.34-.39-.06-.06-.12-.11-.17-.16-.15-.19-.37-.43-.62-.68-.13-.13-.25-.25-.37-.35.51-.46,1.17-.74,1.89-.78,0,.16-.01.33-.01.51,0,.34.02.64.04.88ZM3.49,21.82c.24.24.47.44.65.59.06.07.12.13.19.2.14.14.28.26.39.34-.1.12-.16.27-.18.44-.14-.02-.32-.03-.52-.03-.08,0-.16,0-.24,0-.24-.03-.56-.05-.92-.05-.18,0-.35,0-.51.01.04-.73.33-1.38.79-1.89.11.12.22.24.35.37Z"/><path class="cls-1" d="M10.37,32.77c.14,0,.27,0,.39-.02.05.82.38,1.57.89,2.16-.1.07-.19.16-.29.26-.38.38-.6.77-.49.87s.49-.12.87-.49c.1-.1.19-.2.26-.29.59.51,1.33.84,2.16.89-.01.12-.02.25-.02.39,0,.53.12.97.27.97s.27-.43.27-.97c0-.14,0-.27-.02-.39.82-.05,1.57-.38,2.16-.89.07.1.16.19.26.29.38.38.77.6.87.49.1-.1-.12-.49-.49-.87-.1-.1-.2-.19-.29-.26.51-.59.84-1.33.89-2.16.12.01.25.02.39.02.53,0,.97-.12.97-.27s-.43-.27-.97-.27c-.14,0-.27,0-.39.02-.05-.82-.38-1.57-.89-2.16.1-.07.19-.16.29-.26.38-.38.6-.77.49-.87-.1-.1-.49.12-.87.49-.1.1-.19.2-.26.29-.59-.51-1.33-.84-2.16-.89.01-.12.02-.25.02-.39,0-.53-.12-.97-.27-.97s-.27.43-.27.97c0,.14,0,.27.02.39-.82.05-1.57.38-2.16.89-.07-.1-.16-.19-.26-.29-.38-.38-.77-.6-.87-.49-.1.1.12.49.49.87.1.1.2.19.29.26-.51.59-.84,1.33-.89,2.16-.12-.01-.25-.02-.39-.02-.53,0-.97.12-.97.27s.43.27.97.27ZM13.54,32.6c.02.17.08.32.18.44-.11.09-.25.2-.39.34-.06.06-.11.12-.16.17-.19.15-.43.37-.68.62-.13.13-.25.25-.35.37-.46-.51-.74-1.17-.78-1.89.16,0,.33.01.51.01.34,0,.64-.02.88-.04.09,0,.18,0,.28,0,.2,0,.38-.01.52-.03ZM14.4,31.92c.32,0,.58.26.58.58s-.26.58-.58.58-.58-.26-.58-.58.26-.58.58-.58ZM12.72,34.41c.24-.24.44-.47.59-.65.07-.06.13-.12.2-.19.14-.14.26-.28.34-.39.12.1.27.16.44.18-.02.14-.03.32-.03.52,0,.08,0,.16,0,.24-.03.24-.05.56-.05.92,0,.18,0,.35.01.51-.73-.04-1.38-.33-1.89-.79.12-.11.24-.22.37-.35ZM14.53,34.17c0-.09,0-.18,0-.28,0-.2-.01-.38-.03-.52.17-.02.32-.08.44-.18.09.11.2.25.34.39.06.06.12.11.17.16.15.19.37.43.62.68.13.13.25.25.37.35-.51.46-1.17.74-1.89.78,0-.16.01-.33.01-.51,0-.34-.02-.64-.04-.88ZM16.32,34.18c-.24-.24-.47-.44-.65-.59-.06-.07-.12-.13-.19-.2-.14-.14-.28-.26-.39-.34.1-.12.16-.27.18-.44.14.02.32.03.52.03.08,0,.16,0,.24,0,.24.03.56.05.92.05.18,0,.35,0,.51-.01-.04.73-.33,1.38-.79,1.89-.11-.12-.22-.24-.35-.37ZM16.95,32.34c-.34,0-.64.02-.88.04-.09,0-.18,0-.28,0-.2,0-.38.01-.52.03-.02-.17-.08-.32-.18-.44.11-.09.25-.2.39-.34.06-.06.11-.12.16-.17.19-.15.43-.37.68-.62.13-.13.25-.25.35-.37.46.51.74,1.17.78,1.89-.16,0-.33-.01-.51-.01ZM16.09,30.59c-.24.24-.44.47-.59.65-.07.06-.13.12-.2.19-.14.14-.26.28-.34.39-.12-.1-.27-.16-.44-.18.02-.14.03-.32.03-.52,0-.08,0-.16,0-.24.03-.24.05-.56.05-.92,0-.18,0-.35-.01-.51.73.04,1.38.33,1.89.79-.12.11-.24.22-.37.35ZM14.28,30.83c0,.09,0,.18,0,.28,0,.2.01.38.03.52-.17.02-.32.08-.44.18-.09-.11-.2-.25-.34-.39-.06-.06-.12-.11-.17-.16-.15-.19-.37-.43-.62-.68-.13-.13-.25-.25-.37-.35.51-.46,1.17-.74,1.89-.78,0,.16-.01.33-.01.51,0,.34.02.64.04.88ZM12.49,30.82c.24.24.47.44.65.59.06.07.12.13.19.2.14.14.28.26.39.34-.1.12-.16.27-.18.44-.14-.02-.32-.03-.52-.03-.08,0-.16,0-.24,0-.24-.03-.56-.05-.92-.05-.18,0-.35,0-.51.01.04-.73.33-1.38.79-1.89.11.12.22.24.35.37Z"/><path class="cls-1" d="M19.37,41.77c.14,0,.27,0,.39-.02.05.82.38,1.57.89,2.16-.1.07-.19.16-.29.26-.38.38-.6.77-.49.87s.49-.12.87-.49c.1-.1.19-.2.26-.29.59.51,1.33.84,2.16.89-.01.12-.02.25-.02.39,0,.53.12.97.27.97s.27-.43.27-.97c0-.14,0-.27-.02-.39.82-.05,1.57-.38,2.16-.89.07.1.16.19.26.29.38.38.77.6.87.49.1-.1-.12-.49-.49-.87-.1-.1-.2-.19-.29-.26.51-.59.84-1.33.89-2.16.12.01.25.02.39.02.53,0,.97-.12.97-.27s-.43-.27-.97-.27c-.14,0-.27,0-.39.02-.05-.82-.38-1.57-.89-2.16.1-.07.19-.16.29-.26.38-.38.6-.77.49-.87-.1-.1-.49.12-.87.49-.1.1-.19.2-.26.29-.59-.51-1.33-.84-2.16-.89.01-.12.02-.25.02-.39,0-.53-.12-.97-.27-.97s-.27.43-.27.97c0,.14,0,.27.02.39-.82.05-1.57.38-2.16.89-.07-.1-.16-.19-.26-.29-.38-.38-.77-.6-.87-.49-.1.1.12.49.49.87.1.1.2.19.29.26-.51.59-.84,1.33-.89,2.16-.12-.01-.25-.02-.39-.02-.53,0-.97.12-.97.27s.43.27.97.27ZM22.54,41.6c.02.17.08.32.18.44-.11.09-.25.2-.39.34-.06.06-.11.12-.16.17-.19.15-.43.37-.68.62-.13.13-.25.25-.35.37-.46-.51-.74-1.17-.78-1.89.16,0,.33.01.51.01.34,0,.64-.02.88-.04.09,0,.18,0,.28,0,.2,0,.38-.01.52-.03ZM23.4,40.92c.32,0,.58.26.58.58s-.26.58-.58.58-.58-.26-.58-.58.26-.58.58-.58ZM21.72,43.41c.24-.24.44-.47.59-.65.07-.06.13-.12.2-.19.14-.14.26-.28.34-.39.12.1.27.16.44.18-.02.14-.03.32-.03.52,0,.08,0,.16,0,.24-.03.24-.05.56-.05.92,0,.18,0,.35.01.51-.73-.04-1.38-.33-1.89-.79.12-.11.24-.22.37-.35ZM23.53,43.17c0-.09,0-.18,0-.28,0-.2-.01-.38-.03-.52.17-.02.32-.08.44-.18.09.11.2.25.34.39.06.06.12.11.17.16.15.19.37.43.62.68.13.13.25.25.37.35-.51.46-1.17.74-1.89.78,0-.16.01-.33.01-.51,0-.34-.02-.64-.04-.88ZM25.32,43.18c-.24-.24-.47-.44-.65-.59-.06-.07-.12-.13-.19-.2-.14-.14-.28-.26-.39-.34.1-.12.16-.27.18-.44.14.02.32.03.52.03.08,0,.16,0,.24,0,.24.03.56.05.92.05.18,0,.35,0,.51-.01-.04.73-.33,1.38-.79,1.89-.11-.12-.22-.24-.35-.37ZM25.95,41.34c-.34,0-.64.02-.88.04-.09,0-.18,0-.28,0-.2,0-.38.01-.52.03-.02-.17-.08-.32-.18-.44.11-.09.25-.2.39-.34.06-.06.11-.12.16-.17.19-.15.43-.37.68-.62.13-.13.25-.25.35-.37.46.51.74,1.17.78,1.89-.16,0-.33-.01-.51-.01ZM25.09,39.59c-.24.24-.44.47-.59.65-.07.06-.13.12-.2.19-.14.14-.26.28-.34.39-.12-.1-.27-.16-.44-.18.02-.14.03-.32.03-.52,0-.08,0-.16,0-.24.03-.24.05-.56.05-.92,0-.18,0-.35-.01-.51.73.04,1.38.33,1.89.79-.12.11-.24.22-.37.35ZM23.28,39.83c0,.09,0,.18,0,.28,0,.2.01.38.03.52-.17.02-.32.08-.44.18-.09-.11-.2-.25-.34-.39-.06-.06-.12-.11-.17-.16-.15-.19-.37-.43-.62-.68-.13-.13-.25-.25-.37-.35.51-.46,1.17-.74,1.89-.78,0,.16-.01.33-.01.51,0,.34.02.64.04.88ZM21.49,39.82c.24.24.47.44.65.59.06.07.12.13.19.2.14.14.28.26.39.34-.1.12-.16.27-.18.44-.14-.02-.32-.03-.52-.03-.08,0-.16,0-.24,0-.24-.03-.56-.05-.92-.05-.18,0-.35,0-.51.01.04-.73.33-1.38.79-1.89.11.12.22.24.35.37Z"/><path class="cls-1" d="M28.37,50.77c.14,0,.27,0,.39-.02.05.82.38,1.57.89,2.16-.1.07-.19.16-.29.26-.38.38-.6.77-.49.87s.49-.12.87-.49c.1-.1.19-.2.26-.29.59.51,1.33.84,2.16.89-.01.12-.02.25-.02.39,0,.53.12.97.27.97s.27-.43.27-.97c0-.14,0-.27-.02-.39.82-.05,1.57-.38,2.16-.89.07.1.16.19.26.29.38.38.77.6.87.49.1-.1-.12-.49-.49-.87-.1-.1-.2-.19-.29-.26.51-.59.84-1.33.89-2.16.12.01.25.02.39.02.53,0,.97-.12.97-.27s-.43-.27-.97-.27c-.14,0-.27,0-.39.02-.05-.82-.38-1.57-.89-2.16.1-.07.19-.16.29-.26.38-.38.6-.77.49-.87-.1-.1-.49.12-.87.49-.1.1-.19.2-.26.29-.59-.51-1.33-.84-2.16-.89.01-.12.02-.25.02-.39,0-.53-.12-.97-.27-.97s-.27.43-.27.97c0,.14,0,.27.02.39-.82.05-1.57.38-2.16.89-.07-.1-.16-.19-.26-.29-.38-.38-.77-.6-.87-.49-.1.1.12.49.49.87.1.1.2.19.29.26-.51.59-.84,1.33-.89,2.16-.12-.01-.25-.02-.39-.02-.53,0-.97.12-.97.27s.43.27.97.27ZM31.54,50.6c.02.17.08.32.18.44-.11.09-.25.2-.39.34-.06.06-.11.12-.16.17-.19.15-.43.37-.68.62-.13.13-.25.25-.35.37-.46-.51-.74-1.17-.78-1.89.16,0,.33.01.51.01.34,0,.64-.02.88-.04.09,0,.18,0,.28,0,.2,0,.38-.01.52-.03ZM32.4,49.92c.32,0,.58.26.58.58s-.26.58-.58.58-.58-.26-.58-.58.26-.58.58-.58ZM30.72,52.41c.24-.24.44-.47.59-.65.07-.06.13-.12.2-.19.14-.14.26-.28.34-.39.12.1.27.16.44.18-.02.14-.03.32-.03.52,0,.08,0,.16,0,.24-.03.24-.05.56-.05.92,0,.18,0,.35.01.51-.73-.04-1.38-.33-1.89-.79.12-.11.24-.22.37-.35ZM32.53,52.17c0-.09,0-.18,0-.28,0-.2-.01-.38-.03-.52.17-.02.32-.08.44-.18.09.11.2.25.34.39.06.06.12.11.17.16.15.19.37.43.62.68.13.13.25.25.37.35-.51.46-1.17.74-1.89.78,0-.16.01-.33.01-.51,0-.34-.02-.64-.04-.88ZM34.32,52.18c-.24-.24-.47-.44-.65-.59-.06-.07-.12-.13-.19-.2-.14-.14-.28-.26-.39-.34.1-.12.16-.27.18-.44.14.02.32.03.52.03.08,0,.16,0,.24,0,.24.03.56.05.92.05.18,0,.35,0,.51-.01-.04.73-.33,1.38-.79,1.89-.11-.12-.22-.24-.35-.37ZM34.95,50.34c-.34,0-.64.02-.88.04-.09,0-.18,0-.28,0-.2,0-.38.01-.52.03-.02-.17-.08-.32-.18-.44.11-.09.25-.2.39-.34.06-.06.11-.12.16-.17.19-.15.43-.37.68-.62.13-.13.25-.25.35-.37.46.51.74,1.17.78,1.89-.16,0-.33-.01-.51-.01ZM34.09,48.59c-.24.24-.44.47-.59.65-.07.06-.13.12-.2.19-.14.14-.26.28-.34.39-.12-.1-.27-.16-.44-.18.02-.14.03-.32.03-.52,0-.08,0-.16,0-.24.03-.24.05-.56.05-.92,0-.18,0-.35-.01-.51.73.04,1.38.33,1.89.79-.12.11-.24.22-.37.35ZM32.28,48.83c0,.09,0,.18,0,.28,0,.2.01.38.03.52-.17.02-.32.08-.44.18-.09-.11-.2-.25-.34-.39-.06-.06-.12-.11-.17-.16-.15-.19-.37-.43-.62-.68-.13-.13-.25-.25-.37-.35.51-.46,1.17-.74,1.89-.78,0,.16-.01.33-.01.51,0,.34.02.64.04.88ZM30.49,48.82c.24.24.47.44.65.59.06.07.12.13.19.2.14.14.28.26.39.34-.1.12-.16.27-.18.44-.14-.02-.32-.03-.52-.03-.08,0-.16,0-.24,0-.24-.03-.56-.05-.92-.05-.18,0-.35,0-.51.01.04-.73.33-1.38.79-1.89.11.12.22.24.35.37Z"/><path class="cls-1" d="M37.37,59.77c.14,0,.27,0,.39-.02.05.82.38,1.57.89,2.16-.1.07-.19.16-.29.26-.38.38-.6.77-.49.87s.49-.12.87-.49c.1-.1.19-.2.26-.29.59.51,1.33.84,2.16.89-.01.12-.02.25-.02.39,0,.53.12.97.27.97s.27-.43.27-.97c0-.14,0-.27-.02-.39.82-.05,1.57-.38,2.16-.89.07.1.16.19.26.29.38.38.77.6.87.49.1-.1-.12-.49-.49-.87-.1-.1-.2-.19-.29-.26.51-.59.84-1.33.89-2.16.12.01.25.02.39.02.53,0,.97-.12.97-.27s-.43-.27-.97-.27c-.14,0-.27,0-.39.02-.05-.82-.38-1.57-.89-2.16.1-.07.19-.16.29-.26.38-.38.6-.77.49-.87-.1-.1-.49.12-.87.49-.1.1-.19.2-.26.29-.59-.51-1.33-.84-2.16-.89.01-.12.02-.25.02-.39,0-.53-.12-.97-.27-.97s-.27.43-.27.97c0,.14,0,.27.02.39-.82.05-1.57.38-2.16.89-.07-.1-.16-.19-.26-.29-.38-.38-.77-.6-.87-.49-.1.1.12.49.49.87.1.1.2.19.29.26-.51.59-.84,1.33-.89,2.16-.12-.01-.25-.02-.39-.02-.53,0-.97.12-.97.27s.43.27.97.27ZM40.54,59.6c.02.17.08.32.18.44-.11.09-.25.2-.39.34-.06.06-.11.12-.16.17-.19.15-.43.37-.68.62-.13.13-.25.25-.35.37-.46-.51-.74-1.17-.78-1.89.16,0,.33.01.51.01.34,0,.64-.02.88-.04.09,0,.18,0,.28,0,.2,0,.38-.01.52-.03ZM41.4,58.92c.32,0,.58.26.58.58s-.26.58-.58.58-.58-.26-.58-.58.26-.58.58-.58ZM39.72,61.41c.24-.24.44-.47.59-.65.07-.06.13-.12.2-.19.14-.14.26-.28.34-.39.12.1.27.16.44.18-.02.14-.03.32-.03.52,0,.08,0,.16,0,.24-.03.24-.05.56-.05.92,0,.18,0,.35.01.51-.73-.04-1.38-.33-1.89-.79.12-.11.24-.22.37-.35ZM41.53,61.17c0-.09,0-.18,0-.28,0-.2-.01-.38-.03-.52.17-.02.32-.08.44-.18.09.11.2.25.34.39.06.06.12.11.17.16.15.19.37.43.62.68.13.13.25.25.37.35-.51.46-1.17.74-1.89.78,0-.16.01-.33.01-.51,0-.34-.02-.64-.04-.88ZM43.32,61.18c-.24-.24-.47-.44-.65-.59-.06-.07-.12-.13-.19-.2-.14-.14-.28-.26-.39-.34.1-.12.16-.27.18-.44.14.02.32.03.52.03.08,0,.16,0,.24,0,.24.03.56.05.92.05.18,0,.35,0,.51-.01-.04.73-.33,1.38-.79,1.89-.11-.12-.22-.24-.35-.37ZM43.95,59.34c-.34,0-.64.02-.88.04-.09,0-.18,0-.28,0-.2,0-.38.01-.52.03-.02-.17-.08-.32-.18-.44.11-.09.25-.2.39-.34.06-.06.11-.12.16-.17.19-.15.43-.37.68-.62.13-.13.25-.25.35-.37.46.51.74,1.17.78,1.89-.16,0-.33-.01-.51-.01ZM43.09,57.59c-.24.24-.44.47-.59.65-.07.06-.13.12-.2.19-.14.14-.26.28-.34.39-.12-.1-.27-.16-.44-.18.02-.14.03-.32.03-.52,0-.08,0-.16,0-.24.03-.24.05-.56.05-.92,0-.18,0-.35-.01-.51.73.04,1.38.33,1.89.79-.12.11-.24.22-.37.35ZM41.28,57.83c0,.09,0,.18,0,.28,0,.2.01.38.03.52-.17.02-.32.08-.44.18-.09-.11-.2-.25-.34-.39-.06-.06-.12-.11-.17-.16-.15-.19-.37-.43-.62-.68-.13-.13-.25-.25-.37-.35.51-.46,1.17-.74,1.89-.78,0,.16-.01.33-.01.51,0,.34.02.64.04.88ZM39.49,57.82c.24.24.47.44.65.59.06.07.12.13.19.2.14.14.28.26.39.34-.1.12-.16.27-.18.44-.14-.02-.32-.03-.52-.03-.08,0-.16,0-.24,0-.24-.03-.56-.05-.92-.05-.18,0-.35,0-.51.01.04-.73.33-1.38.79-1.89.11.12.22.24.35.37Z"/><path class="cls-1" d="M46.37,68.77c.14,0,.27,0,.39-.02.05.82.38,1.57.89,2.16-.1.07-.19.16-.29.26-.38.38-.6.77-.49.87s.49-.12.87-.49c.1-.1.19-.2.26-.29.59.51,1.33.84,2.16.89-.01.12-.02.25-.02.39,0,.53.12.97.27.97s.27-.43.27-.97c0-.14,0-.27-.02-.39.82-.05,1.57-.38,2.16-.89.07.1.16.19.26.29.38.38.77.6.87.49.1-.1-.12-.49-.49-.87-.1-.1-.2-.19-.29-.26.51-.59.84-1.33.89-2.16.12.01.25.02.39.02.53,0,.97-.12.97-.27s-.43-.27-.97-.27c-.14,0-.27,0-.39.02-.05-.82-.38-1.57-.89-2.16.1-.07.19-.16.29-.26.38-.38.6-.77.49-.87-.1-.1-.49.12-.87.49-.1.1-.19.2-.26.29-.59-.51-1.33-.84-2.16-.89.01-.12.02-.25.02-.39,0-.53-.12-.97-.27-.97s-.27.43-.27.97c0,.14,0,.27.02.39-.82.05-1.57.38-2.16.89-.07-.1-.16-.19-.26-.29-.38-.38-.77-.6-.87-.49-.1.1.12.49.49.87.1.1.2.19.29.26-.51.59-.84,1.33-.89,2.16-.12-.01-.25-.02-.39-.02-.53,0-.97.12-.97.27s.43.27.97.27ZM49.54,68.6c.02.17.08.32.18.44-.11.09-.25.2-.39.34-.06.06-.11.12-.16.17-.19.15-.43.37-.68.62-.13.13-.25.25-.35.37-.46-.51-.74-1.17-.78-1.89.16,0,.33.01.51.01.34,0,.64-.02.88-.04.09,0,.18,0,.28,0,.2,0,.38-.01.52-.03ZM50.4,67.92c.32,0,.58.26.58.58s-.26.58-.58.58-.58-.26-.58-.58.26-.58.58-.58ZM48.72,70.41c.24-.24.44-.47.59-.65.07-.06.13-.12.2-.19.14-.14.26-.28.34-.39.12.1.27.16.44.18-.02.14-.03.32-.03.52,0,.08,0,.16,0,.24-.03.24-.05.56-.05.92,0,.18,0,.35.01.51-.73-.04-1.38-.33-1.89-.79.12-.11.24-.22.37-.35ZM50.53,70.17c0-.09,0-.18,0-.28,0-.2-.01-.38-.03-.52.17-.02.32-.08.44-.18.09.11.2.25.34.39.06.06.12.11.17.16.15.19.37.43.62.68.13.13.25.25.37.35-.51.46-1.17.74-1.89.78,0-.16.01-.33.01-.51,0-.34-.02-.64-.04-.88ZM52.32,70.18c-.24-.24-.47-.44-.65-.59-.06-.07-.12-.13-.19-.2-.14-.14-.28-.26-.39-.34.1-.12.16-.27.18-.44.14.02.32.03.52.03.08,0,.16,0,.24,0,.24.03.56.05.92.05.18,0,.35,0,.51-.01-.04.73-.33,1.38-.79,1.89-.11-.12-.22-.24-.35-.37ZM52.95,68.34c-.34,0-.64.02-.88.04-.09,0-.18,0-.28,0-.2,0-.38.01-.52.03-.02-.17-.08-.32-.18-.44.11-.09.25-.2.39-.34.06-.06.11-.12.16-.17.19-.15.43-.37.68-.62.13-.13.25-.25.35-.37.46.51.74,1.17.78,1.89-.16,0-.33-.01-.51-.01ZM52.09,66.59c-.24.24-.44.47-.59.65-.07.06-.13.12-.2.19-.14.14-.26.28-.34.39-.12-.1-.27-.16-.44-.18.02-.14.03-.32.03-.52,0-.08,0-.16,0-.24.03-.24.05-.56.05-.92,0-.18,0-.35-.01-.51.73.04,1.38.33,1.89.79-.12.11-.24.22-.37.35ZM50.28,66.83c0,.09,0,.18,0,.28,0,.2.01.38.03.52-.17.02-.32.08-.44.18-.09-.11-.2-.25-.34-.39-.06-.06-.12-.11-.17-.16-.15-.19-.37-.43-.62-.68-.13-.13-.25-.25-.37-.35.51-.46,1.17-.74,1.89-.78,0,.16-.01.33-.01.51,0,.34.02.64.04.88ZM48.49,66.82c.24.24.47.44.65.59.06.07.12.13.19.2.14.14.28.26.39.34-.1.12-.16.27-.18.44-.14-.02-.32-.03-.52-.03-.08,0-.16,0-.24,0-.24-.03-.56-.05-.92-.05-.18,0-.35,0-.51.01.04-.73.33-1.38.79-1.89.11.12.22.24.35.37Z"/><path class="cls-1" d="M1.37,41.27c.14,0,.27,0,.39-.02.05.82.38,1.57.89,2.16-.1.07-.19.16-.29.26-.38.38-.6.77-.49.87s.49-.12.87-.49c.1-.1.19-.2.26-.29.59.51,1.33.84,2.16.89-.01.12-.02.25-.02.39,0,.53.12.97.27.97s.27-.43.27-.97c0-.14,0-.27-.02-.39.82-.05,1.57-.38,2.16-.89.07.1.16.19.26.29.38.38.77.6.87.49.1-.1-.12-.49-.49-.87-.1-.1-.2-.19-.29-.26.51-.59.84-1.33.89-2.16.12.01.25.02.39.02.53,0,.97-.12.97-.27s-.43-.27-.97-.27c-.14,0-.27,0-.39.02-.05-.82-.38-1.57-.89-2.16.1-.07.19-.16.29-.26.38-.38.6-.77.49-.87-.1-.1-.49.12-.87.49-.1.1-.19.2-.26.29-.59-.51-1.33-.84-2.16-.89.01-.12.02-.25.02-.39,0-.53-.12-.97-.27-.97s-.27.43-.27.97c0,.14,0,.27.02.39-.82.05-1.57.38-2.16.89-.07-.1-.16-.19-.26-.29-.38-.38-.77-.6-.87-.49-.1.1.12.49.49.87.1.1.2.19.29.26-.51.59-.84,1.33-.89,2.16-.12-.01-.25-.02-.39-.02-.53,0-.97.12-.97.27s.43.27.97.27ZM4.54,41.1c.02.17.08.32.18.44-.11.09-.25.2-.39.34-.06.06-.11.12-.16.17-.19.15-.43.37-.68.62-.13.13-.25.25-.35.37-.46-.51-.74-1.17-.78-1.89.16,0,.33.01.51.01.34,0,.64-.02.88-.04.09,0,.18,0,.28,0,.2,0,.38-.01.52-.03ZM5.4,40.42c.32,0,.58.26.58.58s-.26.58-.58.58-.58-.26-.58-.58.26-.58.58-.58ZM3.72,42.91c.24-.24.44-.47.59-.65.07-.06.13-.12.2-.19.14-.14.26-.28.34-.39.12.1.27.16.44.18-.02.14-.03.32-.03.52,0,.08,0,.16,0,.24-.03.24-.05.56-.05.92,0,.18,0,.35.01.51-.73-.04-1.38-.33-1.89-.79.12-.11.24-.22.37-.35ZM5.53,42.67c0-.09,0-.18,0-.28,0-.2-.01-.38-.03-.52.17-.02.32-.08.44-.18.09.11.2.25.34.39.06.06.12.11.17.16.15.19.37.43.62.68.13.13.25.25.37.35-.51.46-1.17.74-1.89.78,0-.16.01-.33.01-.51,0-.34-.02-.64-.04-.88ZM7.32,42.68c-.24-.24-.47-.44-.65-.59-.06-.07-.12-.13-.19-.2-.14-.14-.28-.26-.39-.34.1-.12.16-.27.18-.44.14.02.32.03.52.03.08,0,.16,0,.24,0,.24.03.56.05.92.05.18,0,.35,0,.51-.01-.04.73-.33,1.38-.79,1.89-.11-.12-.22-.24-.35-.37ZM7.95,40.84c-.34,0-.64.02-.88.04-.09,0-.18,0-.28,0-.2,0-.38.01-.52.03-.02-.17-.08-.32-.18-.44.11-.09.25-.2.39-.34.06-.06.11-.12.16-.17.19-.15.43-.37.68-.62.13-.13.25-.25.35-.37.46.51.74,1.17.78,1.89-.16,0-.33-.01-.51-.01ZM7.09,39.09c-.24.24-.44.47-.59.65-.07.06-.13.12-.2.19-.14.14-.26.28-.34.39-.12-.1-.27-.16-.44-.18.02-.14.03-.32.03-.52,0-.08,0-.16,0-.24.03-.24.05-.56.05-.92,0-.18,0-.35-.01-.51.73.04,1.38.33,1.89.79-.12.11-.24.22-.37.35ZM5.28,39.33c0,.09,0,.18,0,.28,0,.2.01.38.03.52-.17.02-.32.08-.44.18-.09-.11-.2-.25-.34-.39-.06-.06-.12-.11-.17-.16-.15-.19-.37-.43-.62-.68-.13-.13-.25-.25-.37-.35.51-.46,1.17-.74,1.89-.78,0,.16-.01.33-.01.51,0,.34.02.64.04.88ZM3.49,39.32c.24.24.47.44.65.59.06.07.12.13.19.2.14.14.28.26.39.34-.1.12-.16.27-.18.44-.14-.02-.32-.03-.52-.03-.08,0-.16,0-.24,0-.24-.03-.56-.05-.92-.05-.18,0-.35,0-.51.01.04-.73.33-1.38.79-1.89.11.12.22.24.35.37Z"/><path class="cls-1" d="M10.37,50.27c.14,0,.27,0,.39-.02.05.82.38,1.57.89,2.16-.1.07-.19.16-.29.26-.38.38-.6.77-.49.87s.49-.12.87-.49c.1-.1.19-.2.26-.29.59.51,1.33.84,2.16.89-.01.12-.02.25-.02.39,0,.53.12.97.27.97s.27-.43.27-.97c0-.14,0-.27-.02-.39.82-.05,1.57-.38,2.16-.89.07.1.16.19.26.29.38.38.77.6.87.49.1-.1-.12-.49-.49-.87-.1-.1-.2-.19-.29-.26.51-.59.84-1.33.89-2.16.12.01.25.02.39.02.53,0,.97-.12.97-.27s-.43-.27-.97-.27c-.14,0-.27,0-.39.02-.05-.82-.38-1.57-.89-2.16.1-.07.19-.16.29-.26.38-.38.6-.77.49-.87-.1-.1-.49.12-.87.49-.1.1-.19.2-.26.29-.59-.51-1.33-.84-2.16-.89.01-.12.02-.25.02-.39,0-.53-.12-.97-.27-.97s-.27.43-.27.97c0,.14,0,.27.02.39-.82.05-1.57.38-2.16.89-.07-.1-.16-.19-.26-.29-.38-.38-.77-.6-.87-.49-.1.1.12.49.49.87.1.1.2.19.29.26-.51.59-.84,1.33-.89,2.16-.12-.01-.25-.02-.39-.02-.53,0-.97.12-.97.27s.43.27.97.27ZM13.54,50.1c.02.17.08.32.18.44-.11.09-.25.2-.39.34-.06.06-.11.12-.16.17-.19.15-.43.37-.68.62-.13.13-.25.25-.35.37-.46-.51-.74-1.17-.78-1.89.16,0,.33.01.51.01.34,0,.64-.02.88-.04.09,0,.18,0,.28,0,.2,0,.38-.01.52-.03ZM14.4,49.42c.32,0,.58.26.58.58s-.26.58-.58.58-.58-.26-.58-.58.26-.58.58-.58ZM12.72,51.91c.24-.24.44-.47.59-.65.07-.06.13-.12.2-.19.14-.14.26-.28.34-.39.12.1.27.16.44.18-.02.14-.03.32-.03.52,0,.08,0,.16,0,.24-.03.24-.05.56-.05.92,0,.18,0,.35.01.51-.73-.04-1.38-.33-1.89-.79.12-.11.24-.22.37-.35ZM14.53,51.67c0-.09,0-.18,0-.28,0-.2-.01-.38-.03-.52.17-.02.32-.08.44-.18.09.11.2.25.34.39.06.06.12.11.17.16.15.19.37.43.62.68.13.13.25.25.37.35-.51.46-1.17.74-1.89.78,0-.16.01-.33.01-.51,0-.34-.02-.64-.04-.88ZM16.32,51.68c-.24-.24-.47-.44-.65-.59-.06-.07-.12-.13-.19-.2-.14-.14-.28-.26-.39-.34.1-.12.16-.27.18-.44.14.02.32.03.52.03.08,0,.16,0,.24,0,.24.03.56.05.92.05.18,0,.35,0,.51-.01-.04.73-.33,1.38-.79,1.89-.11-.12-.22-.24-.35-.37ZM16.95,49.84c-.34,0-.64.02-.88.04-.09,0-.18,0-.28,0-.2,0-.38.01-.52.03-.02-.17-.08-.32-.18-.44.11-.09.25-.2.39-.34.06-.06.11-.12.16-.17.19-.15.43-.37.68-.62.13-.13.25-.25.35-.37.46.51.74,1.17.78,1.89-.16,0-.33-.01-.51-.01ZM16.09,48.09c-.24.24-.44.47-.59.65-.07.06-.13.12-.2.19-.14.14-.26.28-.34.39-.12-.1-.27-.16-.44-.18.02-.14.03-.32.03-.52,0-.08,0-.16,0-.24.03-.24.05-.56.05-.92,0-.18,0-.35-.01-.51.73.04,1.38.33,1.89.79-.12.11-.24.22-.37.35ZM14.28,48.33c0,.09,0,.18,0,.28,0,.2.01.38.03.52-.17.02-.32.08-.44.18-.09-.11-.2-.25-.34-.39-.06-.06-.12-.11-.17-.16-.15-.19-.37-.43-.62-.68-.13-.13-.25-.25-.37-.35.51-.46,1.17-.74,1.89-.78,0,.16-.01.33-.01.51,0,.34.02.64.04.88ZM12.49,48.32c.24.24.47.44.65.59.06.07.12.13.19.2.14.14.28.26.39.34-.1.12-.16.27-.18.44-.14-.02-.32-.03-.52-.03-.08,0-.16,0-.24,0-.24-.03-.56-.05-.92-.05-.18,0-.35,0-.51.01.04-.73.33-1.38.79-1.89.11.12.22.24.35.37Z"/><path class="cls-1" d="M19.37,59.27c.14,0,.27,0,.39-.02.05.82.38,1.57.89,2.16-.1.07-.19.16-.29.26-.38.38-.6.77-.49.87s.49-.12.87-.49c.1-.1.19-.2.26-.29.59.51,1.33.84,2.16.89-.01.12-.02.25-.02.39,0,.53.12.97.27.97s.27-.43.27-.97c0-.14,0-.27-.02-.39.82-.05,1.57-.38,2.16-.89.07.1.16.19.26.29.38.38.77.6.87.49.1-.1-.12-.49-.49-.87-.1-.1-.2-.19-.29-.26.51-.59.84-1.33.89-2.16.12.01.25.02.39.02.53,0,.97-.12.97-.27s-.43-.27-.97-.27c-.14,0-.27,0-.39.02-.05-.82-.38-1.57-.89-2.16.1-.07.19-.16.29-.26.38-.38.6-.77.49-.87-.1-.1-.49.12-.87.49-.1.1-.19.2-.26.29-.59-.51-1.33-.84-2.16-.89.01-.12.02-.25.02-.39,0-.53-.12-.97-.27-.97s-.27.43-.27.97c0,.14,0,.27.02.39-.82.05-1.57.38-2.16.89-.07-.1-.16-.19-.26-.29-.38-.38-.77-.6-.87-.49-.1.1.12.49.49.87.1.1.2.19.29.26-.51.59-.84,1.33-.89,2.16-.12-.01-.25-.02-.39-.02-.53,0-.97.12-.97.27s.43.27.97.27ZM22.54,59.1c.02.17.08.32.18.44-.11.09-.25.2-.39.34-.06.06-.11.12-.16.17-.19.15-.43.37-.68.62-.13.13-.25.25-.35.37-.46-.51-.74-1.17-.78-1.89.16,0,.33.01.51.01.34,0,.64-.02.88-.04.09,0,.18,0,.28,0,.2,0,.38-.01.52-.03ZM23.4,58.42c.32,0,.58.26.58.58s-.26.58-.58.58-.58-.26-.58-.58.26-.58.58-.58ZM21.72,60.91c.24-.24.44-.47.59-.65.07-.06.13-.12.2-.19.14-.14.26-.28.34-.39.12.1.27.16.44.18-.02.14-.03.32-.03.52,0,.08,0,.16,0,.24-.03.24-.05.56-.05.92,0,.18,0,.35.01.51-.73-.04-1.38-.33-1.89-.79.12-.11.24-.22.37-.35ZM23.53,60.67c0-.09,0-.18,0-.28,0-.2-.01-.38-.03-.52.17-.02.32-.08.44-.18.09.11.2.25.34.39.06.06.12.11.17.16.15.19.37.43.62.68.13.13.25.25.37.35-.51.46-1.17.74-1.89.78,0-.16.01-.33.01-.51,0-.34-.02-.64-.04-.88ZM25.32,60.68c-.24-.24-.47-.44-.65-.59-.06-.07-.12-.13-.19-.2-.14-.14-.28-.26-.39-.34.1-.12.16-.27.18-.44.14.02.32.03.52.03.08,0,.16,0,.24,0,.24.03.56.05.92.05.18,0,.35,0,.51-.01-.04.73-.33,1.38-.79,1.89-.11-.12-.22-.24-.35-.37ZM25.95,58.84c-.34,0-.64.02-.88.04-.09,0-.18,0-.28,0-.2,0-.38.01-.52.03-.02-.17-.08-.32-.18-.44.11-.09.25-.2.39-.34.06-.06.11-.12.16-.17.19-.15.43-.37.68-.62.13-.13.25-.25.35-.37.46.51.74,1.17.78,1.89-.16,0-.33-.01-.51-.01ZM25.09,57.09c-.24.24-.44.47-.59.65-.07.06-.13.12-.2.19-.14.14-.26.28-.34.39-.12-.1-.27-.16-.44-.18.02-.14.03-.32.03-.52,0-.08,0-.16,0-.24.03-.24.05-.56.05-.92,0-.18,0-.35-.01-.51.73.04,1.38.33,1.89.79-.12.11-.24.22-.37.35ZM23.28,57.33c0,.09,0,.18,0,.28,0,.2.01.38.03.52-.17.02-.32.08-.44.18-.09-.11-.2-.25-.34-.39-.06-.06-.12-.11-.17-.16-.15-.19-.37-.43-.62-.68-.13-.13-.25-.25-.37-.35.51-.46,1.17-.74,1.89-.78,0,.16-.01.33-.01.51,0,.34.02.64.04.88ZM21.49,57.32c.24.24.47.44.65.59.06.07.12.13.19.2.14.14.28.26.39.34-.1.12-.16.27-.18.44-.14-.02-.32-.03-.52-.03-.08,0-.16,0-.24,0-.24-.03-.56-.05-.92-.05-.18,0-.35,0-.51.01.04-.73.33-1.38.79-1.89.11.12.22.24.35.37Z"/><path class="cls-1" d="M28.37,68.27c.14,0,.27,0,.39-.02.05.82.38,1.57.89,2.16-.1.07-.19.16-.29.26-.38.38-.6.77-.49.87s.49-.12.87-.49c.1-.1.19-.2.26-.29.59.51,1.33.84,2.16.89-.01.12-.02.25-.02.39,0,.53.12.97.27.97s.27-.43.27-.97c0-.14,0-.27-.02-.39.82-.05,1.57-.38,2.16-.89.07.1.16.19.26.29.38.38.77.6.87.49.1-.1-.12-.49-.49-.87-.1-.1-.2-.19-.29-.26.51-.59.84-1.33.89-2.16.12.01.25.02.39.02.53,0,.97-.12.97-.27s-.43-.27-.97-.27c-.14,0-.27,0-.39.02-.05-.82-.38-1.57-.89-2.16.1-.07.19-.16.29-.26.38-.38.6-.77.49-.87-.1-.1-.49.12-.87.49-.1.1-.19.2-.26.29-.59-.51-1.33-.84-2.16-.89.01-.12.02-.25.02-.39,0-.53-.12-.97-.27-.97s-.27.43-.27.97c0,.14,0,.27.02.39-.82.05-1.57.38-2.16.89-.07-.1-.16-.19-.26-.29-.38-.38-.77-.6-.87-.49-.1.1.12.49.49.87.1.1.2.19.29.26-.51.59-.84,1.33-.89,2.16-.12-.01-.25-.02-.39-.02-.53,0-.97.12-.97.27s.43.27.97.27ZM31.54,68.1c.02.17.08.32.18.44-.11.09-.25.2-.39.34-.06.06-.11.12-.16.17-.19.15-.43.37-.68.62-.13.13-.25.25-.35.37-.46-.51-.74-1.17-.78-1.89.16,0,.33.01.51.01.34,0,.64-.02.88-.04.09,0,.18,0,.28,0,.2,0,.38-.01.52-.03ZM32.4,67.42c.32,0,.58.26.58.58s-.26.58-.58.58-.58-.26-.58-.58.26-.58.58-.58ZM30.72,69.91c.24-.24.44-.47.59-.65.07-.06.13-.12.2-.19.14-.14.26-.28.34-.39.12.1.27.16.44.18-.02.14-.03.32-.03.52,0,.08,0,.16,0,.24-.03.24-.05.56-.05.92,0,.18,0,.35.01.51-.73-.04-1.38-.33-1.89-.79.12-.11.24-.22.37-.35ZM32.53,69.67c0-.09,0-.18,0-.28,0-.2-.01-.38-.03-.52.17-.02.32-.08.44-.18.09.11.2.25.34.39.06.06.12.11.17.16.15.19.37.43.62.68.13.13.25.25.37.35-.51.46-1.17.74-1.89.78,0-.16.01-.33.01-.51,0-.34-.02-.64-.04-.88ZM34.32,69.68c-.24-.24-.47-.44-.65-.59-.06-.07-.12-.13-.19-.2-.14-.14-.28-.26-.39-.34.1-.12.16-.27.18-.44.14.02.32.03.52.03.08,0,.16,0,.24,0,.24.03.56.05.92.05.18,0,.35,0,.51-.01-.04.73-.33,1.38-.79,1.89-.11-.12-.22-.24-.35-.37ZM34.95,67.84c-.34,0-.64.02-.88.04-.09,0-.18,0-.28,0-.2,0-.38.01-.52.03-.02-.17-.08-.32-.18-.44.11-.09.25-.2.39-.34.06-.06.11-.12.16-.17.19-.15.43-.37.68-.62.13-.13.25-.25.35-.37.46.51.74,1.17.78,1.89-.16,0-.33-.01-.51-.01ZM34.09,66.09c-.24.24-.44.47-.59.65-.07.06-.13.12-.2.19-.14.14-.26.28-.34.39-.12-.1-.27-.16-.44-.18.02-.14.03-.32.03-.52,0-.08,0-.16,0-.24.03-.24.05-.56.05-.92,0-.18,0-.35-.01-.51.73.04,1.38.33,1.89.79-.12.11-.24.22-.37.35ZM32.28,66.33c0,.09,0,.18,0,.28,0,.2.01.38.03.52-.17.02-.32.08-.44.18-.09-.11-.2-.25-.34-.39-.06-.06-.12-.11-.17-.16-.15-.19-.37-.43-.62-.68-.13-.13-.25-.25-.37-.35.51-.46,1.17-.74,1.89-.78,0,.16-.01.33-.01.51,0,.34.02.64.04.88ZM30.49,66.32c.24.24.47.44.65.59.06.07.12.13.19.2.14.14.28.26.39.34-.1.12-.16.27-.18.44-.14-.02-.32-.03-.52-.03-.08,0-.16,0-.24,0-.24-.03-.56-.05-.92-.05-.18,0-.35,0-.51.01.04-.73.33-1.38.79-1.89.11.12.22.24.35.37Z"/><path class="cls-1" d="M1.5,59.77c.14,0,.27,0,.39-.02.05.82.38,1.57.89,2.16-.1.07-.19.16-.29.26-.38.38-.6.77-.49.87s.49-.12.87-.49c.1-.1.19-.2.26-.29.59.51,1.33.84,2.16.89-.01.12-.02.25-.02.39,0,.53.12.97.27.97s.27-.43.27-.97c0-.14,0-.27-.02-.39.82-.05,1.57-.38,2.16-.89.07.1.16.19.26.29.38.38.77.6.87.49.1-.1-.12-.49-.49-.87-.1-.1-.2-.19-.29-.26.51-.59.84-1.33.89-2.16.12.01.25.02.39.02.53,0,.97-.12.97-.27s-.43-.27-.97-.27c-.14,0-.27,0-.39.02-.05-.82-.38-1.57-.89-2.16.1-.07.19-.16.29-.26.38-.38.6-.77.49-.87-.1-.1-.49.12-.87.49-.1.1-.19.2-.26.29-.59-.51-1.33-.84-2.16-.89.01-.12.02-.25.02-.39,0-.53-.12-.97-.27-.97s-.27.43-.27.97c0,.14,0,.27.02.39-.82.05-1.57.38-2.16.89-.07-.1-.16-.19-.26-.29-.38-.38-.77-.6-.87-.49-.1.1.12.49.49.87.1.1.2.19.29.26-.51.59-.84,1.33-.89,2.16-.12-.01-.25-.02-.39-.02-.53,0-.97.12-.97.27s.43.27.97.27ZM4.67,59.6c.02.17.08.32.18.44-.11.09-.25.2-.39.34-.06.06-.11.12-.16.17-.19.15-.43.37-.68.62-.13.13-.25.25-.35.37-.46-.51-.74-1.17-.78-1.89.16,0,.33.01.51.01.34,0,.64-.02.88-.04.09,0,.18,0,.28,0,.2,0,.38-.01.52-.03ZM5.54,58.92c.32,0,.58.26.58.58s-.26.58-.58.58-.58-.26-.58-.58.26-.58.58-.58ZM3.85,61.41c.24-.24.44-.47.59-.65.07-.06.13-.12.2-.19.14-.14.26-.28.34-.39.12.1.27.16.44.18-.02.14-.03.32-.03.52,0,.08,0,.16,0,.24-.03.24-.05.56-.05.92,0,.18,0,.35.01.51-.73-.04-1.38-.33-1.89-.79.12-.11.24-.22.37-.35ZM5.66,61.17c0-.09,0-.18,0-.28,0-.2-.01-.38-.03-.52.17-.02.32-.08.44-.18.09.11.2.25.34.39.06.06.12.11.17.16.15.19.37.43.62.68.13.13.25.25.37.35-.51.46-1.17.74-1.89.78,0-.16.01-.33.01-.51,0-.34-.02-.64-.04-.88ZM7.45,61.18c-.24-.24-.47-.44-.65-.59-.06-.07-.12-.13-.19-.2-.14-.14-.28-.26-.39-.34.1-.12.16-.27.18-.44.14.02.32.03.52.03.08,0,.16,0,.24,0,.24.03.56.05.92.05.18,0,.35,0,.51-.01-.04.73-.33,1.38-.79,1.89-.11-.12-.22-.24-.35-.37ZM8.08,59.34c-.34,0-.64.02-.88.04-.09,0-.18,0-.28,0-.2,0-.38.01-.52.03-.02-.17-.08-.32-.18-.44.11-.09.25-.2.39-.34.06-.06.11-.12.16-.17.19-.15.43-.37.68-.62.13-.13.25-.25.35-.37.46.51.74,1.17.78,1.89-.16,0-.33-.01-.51-.01ZM7.22,57.59c-.24.24-.44.47-.59.65-.07.06-.13.12-.2.19-.14.14-.26.28-.34.39-.12-.1-.27-.16-.44-.18.02-.14.03-.32.03-.52,0-.08,0-.16,0-.24.03-.24.05-.56.05-.92,0-.18,0-.35-.01-.51.73.04,1.38.33,1.89.79-.12.11-.24.22-.37.35ZM5.41,57.83c0,.09,0,.18,0,.28,0,.2.01.38.03.52-.17.02-.32.08-.44.18-.09-.11-.2-.25-.34-.39-.06-.06-.12-.11-.17-.16-.15-.19-.37-.43-.62-.68-.13-.13-.25-.25-.37-.35.51-.46,1.17-.74,1.89-.78,0,.16-.01.33-.01.51,0,.34.02.64.04.88ZM3.62,57.82c.24.24.47.44.65.59.06.07.12.13.19.2.14.14.28.26.39.34-.1.12-.16.27-.18.44-.14-.02-.32-.03-.52-.03-.08,0-.16,0-.24,0-.24-.03-.56-.05-.92-.05-.18,0-.35,0-.51.01.04-.73.33-1.38.79-1.89.11.12.22.24.35.37Z"/><path class="cls-1" d="M10.5,68.77c.14,0,.27,0,.39-.02.05.82.38,1.57.89,2.16-.1.07-.19.16-.29.26-.38.38-.6.77-.49.87s.49-.12.87-.49c.1-.1.19-.2.26-.29.59.51,1.33.84,2.16.89-.01.12-.02.25-.02.39,0,.53.12.97.27.97s.27-.43.27-.97c0-.14,0-.27-.02-.39.82-.05,1.57-.38,2.16-.89.07.1.16.19.26.29.38.38.77.6.87.49.1-.1-.12-.49-.49-.87-.1-.1-.2-.19-.29-.26.51-.59.84-1.33.89-2.16.12.01.25.02.39.02.53,0,.97-.12.97-.27s-.43-.27-.97-.27c-.14,0-.27,0-.39.02-.05-.82-.38-1.57-.89-2.16.1-.07.19-.16.29-.26.38-.38.6-.77.49-.87-.1-.1-.49.12-.87.49-.1.1-.19.2-.26.29-.59-.51-1.33-.84-2.16-.89.01-.12.02-.25.02-.39,0-.53-.12-.97-.27-.97s-.27.43-.27.97c0,.14,0,.27.02.39-.82.05-1.57.38-2.16.89-.07-.1-.16-.19-.26-.29-.38-.38-.77-.6-.87-.49-.1.1.12.49.49.87.1.1.2.19.29.26-.51.59-.84,1.33-.89,2.16-.12-.01-.25-.02-.39-.02-.53,0-.97.12-.97.27s.43.27.97.27ZM13.67,68.6c.02.17.08.32.18.44-.11.09-.25.2-.39.34-.06.06-.11.12-.16.17-.19.15-.43.37-.68.62-.13.13-.25.25-.35.37-.46-.51-.74-1.17-.78-1.89.16,0,.33.01.51.01.34,0,.64-.02.88-.04.09,0,.18,0,.28,0,.2,0,.38-.01.52-.03ZM14.54,67.92c.32,0,.58.26.58.58s-.26.58-.58.58-.58-.26-.58-.58.26-.58.58-.58ZM12.85,70.41c.24-.24.44-.47.59-.65.07-.06.13-.12.2-.19.14-.14.26-.28.34-.39.12.1.27.16.44.18-.02.14-.03.32-.03.52,0,.08,0,.16,0,.24-.03.24-.05.56-.05.92,0,.18,0,.35.01.51-.73-.04-1.38-.33-1.89-.79.12-.11.24-.22.37-.35ZM14.66,70.17c0-.09,0-.18,0-.28,0-.2-.01-.38-.03-.52.17-.02.32-.08.44-.18.09.11.2.25.34.39.06.06.12.11.17.16.15.19.37.43.62.68.13.13.25.25.37.35-.51.46-1.17.74-1.89.78,0-.16.01-.33.01-.51,0-.34-.02-.64-.04-.88ZM16.45,70.18c-.24-.24-.47-.44-.65-.59-.06-.07-.12-.13-.19-.2-.14-.14-.28-.26-.39-.34.1-.12.16-.27.18-.44.14.02.32.03.52.03.08,0,.16,0,.24,0,.24.03.56.05.92.05.18,0,.35,0,.51-.01-.04.73-.33,1.38-.79,1.89-.11-.12-.22-.24-.35-.37ZM17.08,68.34c-.34,0-.64.02-.88.04-.09,0-.18,0-.28,0-.2,0-.38.01-.52.03-.02-.17-.08-.32-.18-.44.11-.09.25-.2.39-.34.06-.06.11-.12.16-.17.19-.15.43-.37.68-.62.13-.13.25-.25.35-.37.46.51.74,1.17.78,1.89-.16,0-.33-.01-.51-.01ZM16.22,66.59c-.24.24-.44.47-.59.65-.07.06-.13.12-.2.19-.14.14-.26.28-.34.39-.12-.1-.27-.16-.44-.18.02-.14.03-.32.03-.52,0-.08,0-.16,0-.24.03-.24.05-.56.05-.92,0-.18,0-.35-.01-.51.73.04,1.38.33,1.89.79-.12.11-.24.22-.37.35ZM14.41,66.83c0,.09,0,.18,0,.28,0,.2.01.38.03.52-.17.02-.32.08-.44.18-.09-.11-.2-.25-.34-.39-.06-.06-.12-.11-.17-.16-.15-.19-.37-.43-.62-.68-.13-.13-.25-.25-.37-.35.51-.46,1.17-.74,1.89-.78,0,.16-.01.33-.01.51,0,.34.02.64.04.88ZM12.62,66.82c.24.24.47.44.65.59.06.07.12.13.19.2.14.14.28.26.39.34-.1.12-.16.27-.18.44-.14-.02-.32-.03-.52-.03-.08,0-.16,0-.24,0-.24-.03-.56-.05-.92-.05-.18,0-.35,0-.51.01.04-.73.33-1.38.79-1.89.11.12.22.24.35.37Z"/></g></svg>